<?xml version="1.0" encoding="utf-8"?>
<!-- Generator: Adobe Illustrator 16.0.0, SVG Export Plug-In . SVG Version: 6.00 Build 0)  -->
<!DOCTYPE svg PUBLIC "-//W3C//DTD SVG 1.1//EN" "http://www.w3.org/Graphics/SVG/1.1/DTD/svg11.dtd">
<svg version="1.1" id="Layer_1" xmlns="http://www.w3.org/2000/svg" xmlns:xlink="http://www.w3.org/1999/xlink" x="0px" y="0px"
	 width="100px" height="100px" viewBox="0 0 100 100" enable-background="new 0 0 100 100" xml:space="preserve">
<g>
	<path fill="#5D93CE" d="M11.348,49.302c0.771-5.398,2.726-10.644,4.505-15.771c1.019-2.938,1.753-6.019,3.184-8.814
		c1.556-3.041,3.59-5.845,6.102-8.168c5.086-4.706,11.771-6.955,18.638-7.042c5.241-0.066,9.844,1.202,14.599,3.24
		c1.226,0.525,2.508,0.811,3.724,1.375c1.24,0.576,2.36,1.364,3.636,1.875c4.089,1.639,8.473,4.043,11.641,7.094
		c2.053,1.977,3.206,3.852,3.975,6.655c0.675,2.463-0.084,4.385-1.197,6.522c-1.529,2.938-4.337-0.067-2.286-1.743
		c-2.223,0.26-3.644,2.409-2.525,4.543c2.198,4.197,8.402,0.551,9.915-2.466c1.137-2.266,1.057-6.067,0.592-8.465
		c-0.757-3.898-2.756-7.224-5.394-10.192c-3.168-3.567-6.956-6.602-11.129-8.915c-2.431-1.347-5.191-2.783-7.893-3.422
		c-2.9-0.686-5.898-0.739-8.861-0.883c-3.308-0.161-6.466,0.687-9.57,1.837c-1.863,0.691-3.606,1.252-5.429,2.115
		c-3.383,1.601-6.4,3.552-9.333,5.899c-1.948,1.559-4.036,3.197-5.66,5.091c-5.708,6.658-8.904,14.941-10.846,23.417
		c-1.996,8.711-2.194,17.989,0.196,26.644C15.895,84.104,32.5,92.158,46.13,94.513c10.285,1.735,22.553-2.974,25.65-13.754
		c1.115-3.966,2.107-9.17-0.371-12.888c-5.7-8.674-20.942,3.718-15.489,11.772c1.982,3.098,6.195,0.991,6.691-2.23
		c0.247-2.727-3.223-4.338-3.718-1.239c-0.372-5.205,6.939-7.312,7.435-1.859c0.248,2.727-2.354,6.196-4.585,7.312
		c-3.487,1.743-7.588,1.979-11.363,1.231c-3.419-0.679-7.161-1.64-9.88-3.764c-1.195-0.934-2.616-1.809-3.606-2.965
		c-2.34-2.732-3.904-6.057-4.869-9.528c-1.508-5.429,1.485-9.884,5.348-13.313c6.33-5.62,15.013-9.443,23.665-8.046
		c4.513,0.729,8.958,2.13,13.126,3.995c6.896,3.086,15.853,8.944,14.827,17.75c-0.426,3.658-2.606,6.275-4.068,9.508
		c-0.347,0.767-0.584,1.475-1.047,2.199c-1.196,1.873-2.657,3.622-4.207,5.211c-2.26,2.316-4.813,4.34-7.538,6.082
		c-5.346,3.417-11.385,5.801-17.609,7.016c-7.812,1.524-16.775,0.106-24.015-3.089c-4.376-1.931-7.914-4.272-11.094-7.888
		c-3.085-3.507-4.499-7.62-6.055-11.93C10.506,66.199,10.167,57.565,11.348,49.302z"/>
	<g>
		<g>
			<g>
				<g>
					<path fill="#3E3049" d="M10.049,49.918c0.137-0.994-0.113-0.665-0.133-0.821C9.763,50.778,10.107,49.885,10.049,49.918z"/>
					<path fill="#3E3049" d="M10.651,66.428l-0.133-0.277c0,0,0.152,0.594,0.305,1.188c0.076,0.296,0.152,0.591,0.209,0.813
						c0.071,0.219,0.119,0.364,0.119,0.364s-0.039-0.128-0.097-0.321c-0.045-0.196-0.105-0.457-0.165-0.719
						C10.77,66.951,10.651,66.428,10.651,66.428z"/>
					<path fill="#3E3049" d="M15.342,81.092c-0.357-1.464-2.234-5.121-2.945-7.782l-0.06-0.455l-0.652-1.104
						c0.271,0.796,0.563,1.652,0.861,2.523c0.331,0.844,0.667,1.701,0.991,2.53C14.191,78.466,14.861,80.006,15.342,81.092z"/>
					<path fill="#3E3049" d="M19.634,88.408c-0.271-0.477,1.379,1.235-1.363-1.451c0.119,0.151,0.155,0.198,0.222,0.283
						C18.735,87.487,19.068,87.829,19.634,88.408z"/>
					<path fill="#3E3049" d="M18.493,87.24c-0.58-0.619-0.406-0.407-0.189-0.124C18.54,87.374,18.837,87.673,18.493,87.24z"/>
					<path fill="#3E3049" d="M24.434,92.235c0,0-0.122-0.066-0.304-0.166c-0.179-0.106-0.437-0.217-0.657-0.389
						c-0.456-0.32-0.911-0.64-0.911-0.64c0.159,0.178,0.626,0.579,0.978,0.884c0.375,0.269,0.631,0.444,0.299,0.274
						C25.823,93.352,25.457,93.027,24.434,92.235z"/>
					<path fill="#3E3049" d="M26.345,93.112l-0.994-0.553C25.503,92.694,25.755,92.864,26.345,93.112z"/>
					<path fill="#3E3049" d="M23.274,91.321c-0.041,0.068,2.077,1.237,2.077,1.238c-0.238-0.216-0.201-0.329-0.961-0.55
						c0.112,0.008,0.053-0.03-0.148-0.13C24.038,91.785,23.693,91.625,23.274,91.321z"/>
					<path fill="#3E3049" d="M22.229,90.425c-0.931-0.825-2.113-1.877-0.33-0.58c-0.857-0.609-1.347-1.179-1.708-1.476
						c-0.349-0.31-0.504-0.418-0.472-0.341s0.252,0.34,0.652,0.769c0.205,0.209,0.436,0.48,0.746,0.753
						C21.442,89.806,21.813,90.098,22.229,90.425z"/>
					<path fill="#3E3049" d="M16.026,81.638c0,0-0.155-0.37-0.311-0.741c-0.162-0.366-0.293-0.745-0.293-0.744l-0.664-1.221
						c0.163,0.307,0.45,1.021,0.708,1.644C15.751,81.187,15.999,81.708,16.026,81.638z"/>
					<path fill="#3E3049" d="M36.86,97.778c0.151-0.041-0.664-0.371-0.792-0.503c0,0-0.395-0.08-0.783-0.188
						c-0.39-0.102-0.78-0.203-0.78-0.203c0.389,0.146,0.95,0.355,1.43,0.535C36.421,97.572,36.82,97.711,36.86,97.778z"/>
					<path fill="#3E3049" d="M36.068,97.275l2.36,0.444C36.354,97.197,35.956,97.161,36.068,97.275z"/>
					<path fill="#3E3049" d="M26.873,92.973c0,0-0.874-0.46-1.747-0.92c-0.439-0.232-0.878-0.466-1.207-0.641
						c-0.308-0.211-0.513-0.351-0.513-0.351s0.237,0.18,0.613,0.414c0.39,0.212,0.91,0.494,1.43,0.775
						c0.518,0.28,1.035,0.56,1.423,0.769c0.395,0.192,0.67,0.295,0.67,0.295S26.863,92.993,26.873,92.973z"/>
					<path fill="#3E3049" d="M45.987,99.176c0,0-0.347,0.035-0.694,0.07c-0.346,0.01-0.692,0.02-0.692,0.02s0.614,0.02,1.233-0.051
						c0.616-0.052,1.231-0.103,1.231-0.103L45.987,99.176z"/>
					<path fill="#3E3049" d="M52.145,98.959c-1.006,0.293,1.435,0.041,0.362,0.287c0.842-0.135,1.616-0.288,2.337-0.444
						c0.695-0.213,1.336-0.434,1.942-0.638c-0.652,0.186-1.324,0.379-2.08,0.524C53.934,98.793,53.092,98.882,52.145,98.959z"/>
					<path fill="#3E3049" d="M58.823,97.498c-0.645,0.193-1.309,0.42-2.037,0.666C57.479,97.96,58.156,97.745,58.823,97.498z"/>
					<path fill="#3E3049" d="M42.446,98.47c0.179,0.064,0.52,0.22,1.861,0.404l-0.921-0.307
						C43.099,98.537,42.775,98.504,42.446,98.47z"/>
					<path fill="#3E3049" d="M43.353,98.558l0.032,0.01c1.019,0.104,1.727,0.188,2.031,0.207
						C45.155,98.761,44.536,98.684,43.353,98.558z"/>
					<path fill="#3E3049" d="M42.208,98.445c0.086,0.009,0.152,0.016,0.237,0.024C42.356,98.439,42.305,98.428,42.208,98.445z"/>
					<path fill="#3E3049" d="M32.476,95.738c1.358,0.388,4.172,1.096,1.547,0.083C33.031,95.641,34.519,96.281,32.476,95.738z"/>
					<path fill="#3E3049" d="M41.096,97.987c0,0.001-2.492-0.456-2.48-0.509c0.032,0.066,0.464,0.256-0.229,0.148
						C38.378,97.682,41.096,97.987,41.096,97.987z"/>
					<path fill="#3E3049" d="M42.325,98.12c0,0-0.309-0.021-0.615-0.061c-0.307-0.036-0.614-0.072-0.614-0.072l0.921,0.178
						c0,0,0.077-0.009,0.154-0.018C42.248,98.134,42.325,98.12,42.325,98.12z"/>
					<path fill="#3E3049" d="M54.532,98.315c1.063-0.309,2.215-0.63,3.531-0.957c-0.71,0.157-1.431,0.316-2.148,0.475
						c-0.357,0.083-0.714,0.165-1.068,0.247c-0.357,0.071-0.724,0.109-1.079,0.166C53.581,98.341,52.969,98.554,54.532,98.315z"/>
					<path fill="#3E3049" d="M49.087,98.822c0.08-0.009,0.176-0.019,0.246-0.026C49.183,98.786,49.06,98.787,49.087,98.822z"/>
					<path fill="#3E3049" d="M70.382,92.356c-0.071,0.025-0.133,0.048-0.208,0.074c-0.005,0.018-0.011,0.034-0.021,0.056
						L70.382,92.356z"/>
					<path fill="#3E3049" d="M53.517,98.242c-1.094,0.102-1.733,0.305-2.357,0.378c0.818-0.054,1.681-0.255,2.608-0.374
						C53.854,98.203,53.867,98.181,53.517,98.242z"/>
					<path fill="#3E3049" d="M62.352,96.252c-0.554,0.153-1.176,0.325-1.831,0.507C61.064,96.643,62.177,96.371,62.352,96.252z"/>
					<path fill="#3E3049" d="M49.708,98.834c-0.053,0.006-0.106,0.012-0.166,0.019C49.907,98.878,49.863,98.858,49.708,98.834z"/>
					<path fill="#3E3049" d="M49.708,98.834c0.565-0.063,1.007-0.141,1.451-0.214c-0.666,0.056-1.289,0.114-1.826,0.176
						C49.473,98.804,49.607,98.818,49.708,98.834z"/>
					<path fill="#3E3049" d="M73.071,89.127c-0.033,0.118-0.564,0.672-1.442,1.209c-0.869,0.549-2.011,1.194-3.11,1.702
						c-0.996,0.658-1.137,0.851-0.701,0.931c0.438,0.087,1.341-0.176,2.356-0.538c0.025-0.114-0.009-0.186,2.092-1.525
						c-0.819,0.347-4.912,2.522-3.18,1.324c2.782-1.73,2.382-1.241,3.787-2.012c-0.629,0.276,0.188-0.385,1.055-1.097
						c0.861-0.722,1.718-1.564,1.332-1.486c0,0-0.547,0.455-1.094,0.91c-0.57,0.427-1.141,0.853-1.141,0.853
						C72.949,89.381,73.752,88.729,73.071,89.127z"/>
					<path fill="#3E3049" d="M65.896,94.544l-0.927,0.446c1.083-0.451,1.882-0.727,3.368-1.23c1.486-0.889,1.737-1.17,1.815-1.273
						c0,0-0.277,0.156-0.692,0.391c-0.416,0.232-0.959,0.565-1.551,0.803c-1.159,0.518-2.319,1.035-2.319,1.035L65.896,94.544z"/>
					<path fill="#3E3049" d="M60.625,96.585c0.697-0.468,2.987-1.355,1.487-1.084c-1.415,0.495-1.897,0.709-2.236,0.884
						c-0.336,0.182-0.529,0.317-1.396,0.564c1.186-0.273,1.657-0.513,1.81-0.533c0.146-0.039-0.052,0.051-0.29,0.159
						c-0.474,0.219-1.106,0.515,0.58-0.001c-0.451,0.166-0.872,0.351-1.294,0.467c-0.424,0.11-0.829,0.216-1.223,0.317
						c0.431-0.09,0.855-0.179,1.27-0.265c0.413-0.094,0.802-0.23,1.188-0.335c-0.045,0.01-0.074,0.016-0.11,0.023l-0.021,0.008
						l0.002-0.004c-0.207,0.043-0.274,0.049-0.045-0.014c0.013-0.005,0.067-0.026,0.092-0.036
						C60.46,96.697,60.539,96.642,60.625,96.585c1.351-0.417,0.227-0.018-0.188,0.151c-0.01,0.015-0.044,0.037-0.047,0.05
						l0.02-0.004c0,0,1.149-0.427,2.299-0.854c0.571-0.222,1.154-0.409,1.57-0.605c0.414-0.199,0.689-0.332,0.689-0.332
						C64.032,95.441,62.782,95.792,60.625,96.585z"/>
					<path fill="#3E3049" d="M36.616,96.132c0.139,0.054,0.129,0.067,0.134,0.085C37.058,96.265,37.178,96.275,36.616,96.132z"/>
					<path fill="#3E3049" d="M38.502,96.729c-0.346-0.054-0.649-0.04-1.75-0.332c-0.943-0.298,0.031-0.099-0.002-0.18
						c-0.342-0.042-0.926-0.174-1.169-0.214c-0.243-0.042-0.164,0.071,0.862,0.405l0.336,0.052c0.936,0.254,1.986,0.646,2.788,0.859
						c0.8,0.22,1.324,0.386,1.152,0.371C40.196,97.382,39.71,97.229,38.502,96.729z"/>
					<path fill="#3E3049" d="M49.65,98.171c0,0,1.01-0.088,2.02-0.175c0.999-0.173,1.999-0.346,1.999-0.346l-2.06,0.112l0.115,0.097
						C49.432,97.971,49.934,98.063,49.65,98.171z"/>
					<polygon fill="#3E3049" points="70.839,92.218 70.48,92.686 72.369,91.232 					"/>
					<polygon fill="#3E3049" points="75.302,89.337 75.262,89.615 76.316,88.666 					"/>
					<path fill="#3E3049" d="M12.915,75.351l-0.573-1.084C12.605,74.785,12.782,75.116,12.915,75.351z"/>
					<path fill="#3E3049" d="M18.199,82.386l0.224,0.076C18.089,82.224,17.939,82.137,18.199,82.386z"/>
					<path fill="#3E3049" d="M45.368,82.885c1.644,0.732,3.515,1.409,3.352,1.152l-0.479-0.335
						C47.04,83.467,46.128,83.183,45.368,82.885z"/>
					<path fill="#3E3049" d="M72.997,73.648c0.024-0.164,0.047-0.333,0.058-0.503c-0.086-0.413-0.186-0.799-0.295-1.134
						C72.866,72.494,72.948,73.058,72.997,73.648z"/>
					<path fill="#3E3049" d="M73.852,74.914c-0.001,0-0.08,0.586-0.182,1.163c-0.11,0.574-0.242,1.139-0.242,1.139
						C73.565,76.715,73.727,75.979,73.852,74.914z"/>
					<path fill="#3E3049" d="M14.841,29.305l0.41-1.363C14.295,29.931,14.817,29.103,14.841,29.305z"/>
					<path fill="#3E3049" d="M72.79,47.385c-1.349-0.683-2.485-1.068-3.476-1.424c0.832,0.36,1.589,0.688,2.186,0.946
						C72.088,47.191,72.534,47.377,72.79,47.385z"/>
					<path fill="#3E3049" d="M16.646,76.97c-0.461-0.517-0.617-0.77-0.654-0.72C16.38,76.844,16.708,77.109,16.646,76.97z"/>
					<path fill="#3E3049" d="M65.132,44.742c0.252,0.085,0.501,0.17,0.759,0.258c1.069,0.263,2.165,0.48,3.424,0.96
						C68.089,45.397,66.592,44.998,65.132,44.742z"/>
					<path fill="#3E3049" d="M50.188,11.382c-0.114-0.032-0.25-0.07-0.353-0.099C49.792,11.304,49.953,11.338,50.188,11.382z"/>
					<path fill="#3E3049" d="M14.229,35.303c0.154-0.456,0.407-1.2,0.645-1.902C14.74,33.737,14.542,34.31,14.229,35.303z"/>
					<path fill="#3E3049" d="M88.427,72.765C87.907,73.765,88.363,72.934,88.427,72.765L88.427,72.765z"/>
					<path fill="#3E3049" d="M85.22,77.078c0.07-0.225,0.11-0.4,0.077-0.443C85.307,76.737,85.279,76.891,85.22,77.078z"/>
					<path fill="#3E3049" d="M53.992,45.239c-0.032,0.004-0.058,0.008-0.096,0.014C54.227,45.246,54.168,45.247,53.992,45.239z"/>
					<path fill="#3E3049" d="M87.54,74.192c0.223-0.343,0.472-0.755,0.737-1.222C88.157,73.171,87.932,73.544,87.54,74.192z"/>
					<path fill="#3E3049" d="M87.736,74.051c-0.189,0.325-0.339,0.583-0.481,0.828C87.225,75.013,87.295,74.922,87.736,74.051z"/>
					<path fill="#3E3049" d="M89.13,71.312c-0.29,0.598-0.56,1.171-0.853,1.659c0.116-0.186,0.171-0.262,0.149-0.206
						C88.585,72.479,88.784,72.025,89.13,71.312z"/>
					<path fill="#3E3049" d="M80.669,17.223c0.048,0.059,0.101,0.124,0.153,0.188C81.628,18.208,81.309,17.819,80.669,17.223z"/>
					<path fill="#3E3049" d="M64.376,72.437c0.026,0.02,0.04,0.029,0.064,0.046c-0.022-0.024-0.051-0.055-0.072-0.078L64.376,72.437
						z"/>
					<path fill="#3E3049" d="M61.794,72.728c0.471-0.45,0.987-0.615,1.422-0.644c0.456-0.061,0.81,0.126,1.152,0.32
						c0,0-0.103-0.209-0.269-0.478c-0.189-0.202-0.452-0.424-0.452-0.424c0.003-0.012-0.153,0.045-0.363,0.116
						c-0.21,0.049-0.472,0.212-0.706,0.354c-0.232,0.159-0.435,0.358-0.574,0.49C61.878,72.622,61.794,72.728,61.794,72.728z"/>
					<path fill="#3E3049" d="M8.979,55.019c0,0-0.069,0.708-0.139,1.415c-0.027,0.711-0.054,1.422-0.054,1.422
						c-0.255-1.713-0.181-3.199-0.229-3.92c-0.024-0.721-0.067-0.68-0.245,0.66c0.168,0.107,0.228,0.854,0.256,1.916
						c0.094,1.064,0.104,2.448,0.214,3.829c0.207,2.767,0.732,5.499,1.095,5.63c0,0,0.027,0.471,0.096,0.935
						c0.073,0.464,0.146,0.929,0.146,0.929c-0.118-0.527-0.177-0.603-0.292-1.12c0.577,3.611,0.891,2.586,2.577,7.008
						c0.316,0.763,0.584,1.41,0.724,1.746c0.149,0.322,0.108,0.354-0.213-0.117c0,0,0.515,0.776,1.029,1.547
						c0.489,0.789,1.096,1.486,1.096,1.486c0.63,0.861,0.38,0.727-0.253-0.14c0,0,0.214,0.279,0.536,0.699
						c0.335,0.407,0.717,1.007,1.215,1.503c0.476,0.516,0.951,1.031,1.308,1.418c0.175,0.197,0.33,0.352,0.446,0.451
						c0.113,0.104,0.177,0.162,0.177,0.162l-0.046-0.016c0.664,0.466,2.061,1.603,2.816,2.055c1.037,0.957-0.594-0.384-0.369-0.095
						c0,0,0.624,0.447,1.248,0.895c0.308,0.229,0.624,0.443,0.874,0.588c0.244,0.15,0.407,0.251,0.407,0.251
						c0.461,0.427,0.148,0.315-0.5-0.06c-0.657-0.361-1.568-1.105-2.4-1.771c0.918,1.146,1.423,1.576,2.347,2.103
						c0.458,0.271,1.006,0.593,1.744,1.088c0.759,0.459,1.715,1.085,3.02,1.931c0,0-0.163-0.08-0.408-0.2
						c-0.238-0.134-0.555-0.312-0.872-0.49c-0.635-0.358-1.27-0.717-1.27-0.717c1.405,1.302,3.436,2.388,6.365,3.935
						c-0.718-0.368-5.626-3.513-2.584-2.108c0.792,0.505,1.915,1.035,3.6,1.655c-0.082,0.219,1.553,0.868,3.624,1.585l-0.25,0.252
						c2.276,0.695,2.154,0.468,3.531,0.72c2.515,0.77,3.014,1.058,3.569,1.436c4.155,0.898-2.789-0.951,2.143-0.031
						c3.479,0.755,6.144,0.77,10.309-0.132c2.48-0.352-0.392,0.282,0.51,0.201c0.016,0.049,2.104-0.771,2.104-0.771
						c0.529-0.132,0.376-0.027,0.304,0.049c0.878-0.352,0.887-0.439,1.024-0.569c0.129-0.15,0.42-0.247,1.732-0.892
						c0.292-0.308,1.706-0.785,3.337-1.697c1.659-0.851,3.436-2.313,4.481-3.831c0.641-0.646-0.128,0.468,0.139,0.335
						c0.377-0.516,0.699-0.958,0.98-1.344c0.238-0.412,0.442-0.765,0.621-1.073c0.175-0.311,0.333-0.573,0.461-0.821
						c0.108-0.256,0.206-0.487,0.302-0.713c0.176-0.454,0.383-0.863,0.548-1.435c0.141-0.575,0.368-1.283,0.558-2.271
						c0,0,0.28-0.807,0.52-1.632c0.247-0.822,0.442-1.669,0.442-1.669c-0.765,2.445-0.194-0.784-0.431-3.567
						c-0.107,0.88-0.293,1.611-0.391,2.1c0,0,0.099-1.092,0.04-2.175c-0.042-1.085-0.271-2.13-0.271-2.13
						c-0.05-0.515,0.162-0.127,0.384,0.568c-0.051-0.294-0.139-0.566-0.199-0.774c-0.093-0.772-0.104-0.974,0.024-0.854
						c0.124,0.119,0.338,0.574,0.517,1.134c0.021,0.559,0.004,1.104-0.047,1.628c0.231,1.089,0.341,2.16,0.551,1.939
						c-0.021-0.297-0.008-0.87-0.031-1.501c0.05,0.295,0.096,0.485,0.129,0.351c0.037-0.157-0.024-0.644-0.153-1.392
						c0,0,0.063-0.269,0.123-0.545c0.063-0.276,0.107-0.56,0.107-0.56l-0.187-0.234c0,0-0.183-1.562-0.886-3.028
						c-0.358-0.72-0.806-1.4-1.204-1.877c-0.211-0.232-0.386-0.426-0.509-0.562c-0.129-0.13-0.215-0.194-0.215-0.194
						c-0.975-0.722-2.113-1.149-3.258-1.271c-1.148-0.124-2.294,0.035-3.415,0.391c-2.232,0.732-4.484,2.174-6.627,4.67
						c0.92-1.383-0.067-0.557-0.243-0.822c0.756-0.582,1.689-1.514,2.961-2.407c1.253-0.896,2.889-1.746,4.759-1.968
						c-0.966,0.129-1.334,0.209-1.418,0.183c-0.085-0.026,0.125-0.137,0.36-0.228c0.001,0.001-1.641,0.461-3.011,1.348
						c-1.405,0.832-2.54,1.97-2.54,1.97c-0.058-0.287-1.183,0.739-2.298,2.042c0.615-0.338-0.15,0.604-0.883,2.125
						c-0.785,1.491-1.238,3.735-0.956,5.075c-0.066,0.091-0.195-0.014-0.26-0.576c-0.087-0.555-0.095-1.605,0.438-3.17
						c-0.746,1.68-0.635,3.018-0.307,4.151c0.069,0.29,0.181,0.567,0.302,0.848c0.103,0.286,0.241,0.563,0.396,0.854
						c0.133,0.302,0.313,0.591,0.501,0.909c0.172,0.317,0.407,0.681,0.709,1.049c-0.6-0.633-0.744-1.035-0.981-1.259
						c0.267,0.371,0.591,0.949,1.169,1.43c0.553,0.49,1.319,0.823,2.011,0.896c0.688,0.051,1.27-0.038,1.587-0.128
						c0.325-0.074,0.431-0.073,0.16,0.055c0,0-0.212,0.067-0.424,0.135c-0.224,0.039-0.446,0.079-0.446,0.079
						c0.98-0.13,2.052-0.618,2.875-1.479c0.822-0.861,1.496-1.99,1.495-3.452c-0.064-1.407-0.944-2.783-2.396-3.194
						c-0.712-0.223-1.676,0.014-2.15,0.604c-0.49,0.563-0.591,1.153-0.691,1.662c0.485,0.021,0.97,0.042,1.399,0.061
						c-0.159-1.658,0.558-2.698,0.546-2.974c0.062,0.016,0.104,0.767,0.1,0.992c0.001,0,0.012-0.112,0.091-0.287
						c0.069-0.179,0.15-0.456,0.349-0.741c0.348-0.592,1.064-1.329,2.044-1.668c0.483-0.193,1.016-0.22,1.531-0.167
						c0.248,0.051,0.491,0.135,0.727,0.214c0.214,0.132,0.416,0.256,0.603,0.371c0.298,0.312,0.602,0.58,0.705,0.82
						c0.135,0.23,0.212,0.362,0.212,0.362c-0.333-0.321-0.378,0.33-0.652,0.509c-0.143,0.108-0.24,0.076-0.457-0.108
						c-0.105-0.092-0.21-0.239-0.342-0.428c-0.175-0.147-0.332-0.377-0.611-0.536c0.291,0.224,0.49,0.611,0.693,1.167
						c0.028,0.157,0.059,0.322,0.091,0.495c0.018,0.088,0.036,0.177,0.056,0.269c-0.003,0.09-0.006,0.183-0.009,0.278
						c-0.013,0.191,0.022,0.388-0.009,0.61c-0.043,0.228-0.088,0.467-0.136,0.719c0.082-0.313,0.369-0.696,0.483-0.904
						c0.127-0.207,0.278-0.236,0.251,0.261c-0.13,0.321-0.237,0.591-0.33,0.821c-0.104,0.224-0.229,0.399-0.313,0.558
						c-0.175,0.317-0.299,0.54-0.475,0.765c-0.175,0.222-0.303,0.493-0.608,0.818c-0.147,0.164-0.318,0.354-0.524,0.582
						c-0.219,0.213-0.496,0.438-0.806,0.713c0.392-0.363,0.498-0.236,0.337,0.155c-0.167,0.371-0.646,1.02-1.426,1.443
						c0.188-0.217-0.378-0.433,0.083-0.787c0,0-0.193,0.16-0.484,0.4c-0.356,0.203-0.822,0.513-1.32,0.77
						c-0.998,0.515-2.093,0.874-2.092,0.874c1.081-0.365,0.083-0.469-0.903-0.485c0.232,0.003-0.7,0.204-1.863,0.222
						c-0.578,0.052-1.214-0.02-1.773-0.016c-0.561-0.048-1.049-0.096-1.346-0.107c0,0,0.467,0.076,0.933,0.152
						c0.234,0.043,0.47,0.074,0.646,0.085c0.177,0.016,0.295,0.025,0.295,0.025c-1.259-0.049-2.197-0.153-2.985-0.218
						c-0.795-0.058-1.444-0.104-2.096-0.151c-1.287-0.103-2.625-0.144-5.032-1.146c0.306,0.084,0.741,0.037,0.782-0.126
						c0.042-0.166-0.294-0.459-1.417-1.03c-0.283-0.076-0.748-0.188-1.351-0.376c-0.571-0.216-1.313-0.524-2.126-0.935
						c-0.809-0.399-1.73-0.819-2.609-1.515c-0.469-0.332-0.846-0.749-1.227-1.179c-0.385-0.43-0.776-0.877-1.153-1.345l-0.314-0.876
						c0,0-0.494-0.768-0.987-1.535c-0.408-0.815-0.816-1.631-0.816-1.631c0.628,0.966,1.84,2.79,3.443,4.39
						c1.461,1.811,3.56,2.655,5.079,3.627c-0.771-0.657-0.863-0.788-1.045-0.96c-0.175-0.177-0.521-0.407-1.566-1.268
						c-0.25-0.382-0.014-0.163,0.489,0.17c0.505,0.358,1.192,0.847,1.531,1.088c0,0-0.335-0.257-0.839-0.642
						c-0.485-0.38-1.085-0.882-1.548-1.402c-0.482-0.588-0.94-1.282-1.297-1.752c-0.179-0.24-0.327-0.441-0.402-0.604
						c-0.085-0.154-0.133-0.242-0.133-0.242c-0.057,0.205-0.791-0.802-1.424-1.894c-0.568-1.125-1.164-2.261-1.218-2.108
						c0,0,0.03,0.11,0.124,0.285c0.088,0.178,0.213,0.431,0.364,0.734c0.316,0.599,0.655,1.438,1.177,2.169
						c0.491,0.747,0.927,1.526,1.389,2.009c0.422,0.509,0.703,0.849,0.703,0.849c-0.023,0.109-0.232-0.003-0.583-0.298
						c-0.334-0.306-0.891-0.741-1.356-1.445c-0.483-0.688-1.123-1.487-1.567-2.495c-0.241-0.493-0.5-1.005-0.731-1.543
						c-0.193-0.553-0.382-1.122-0.562-1.697c-0.249-1.192,0.855,0.689,0.927,0.551c-0.125-0.266-0.615-1.337-0.829-2.335
						c-0.215-1.02-0.206-2.043-0.136-2.24c0,0,0.006,0.473,0.086,0.937c0.023,0.232,0.066,0.462,0.114,0.633
						c0.04,0.171,0.066,0.284,0.066,0.284c-0.109-1.21-0.167-2.195-0.038-3.265c0.137-1.059,0.493-2.206,1.419-3.433
						c0.539-0.929,2.214-2.27,2.211-2.514c-1.423,1.02-2.594,0.683-2.03-0.505c0.137-0.153,1.204-1.255,2.482-2.247
						c1.276-0.993,2.708-1.938,3.293-2.226C41,50.5,40.529,51.05,40.047,51.609c-0.467,0.585-0.951,1.174-0.262,0.803
						c-0.006-0.12,0.723-0.821,1.051-1.083c1.004-0.586-0.256,0.465,1.827-0.933c0.144-0.563,4.475-2.475,0.868-0.857
						c1.04-0.672,1.651-0.929,2.296-1.224c0.656-0.276,1.362-0.564,2.709-1.088c-0.962,0.125,2.194-1.678,4.732-2.134
						c-0.133,0.107,0.445,0.135,0.723,0.146c2.551-0.339,4.548-0.228,6.444,0.065c1.893,0.356,3.745,0.727,6.039,1.396
						c0.201,0.103,0.856,0.31,1.324,0.518c0.465,0.216,0.757,0.381,0.271,0.292c0.667,0.165,1.297,0.258,2.692,0.727
						c1.265,0.679,0.511,0.352-0.346,0.069c-0.86-0.274-1.798-0.567-0.834-0.05c0.251-0.169,3.648,1.059,5.59,1.856
						c-0.224-0.279-1.319-0.809-2.634-1.286c-0.656-0.239-1.344-0.522-2.02-0.712c-0.673-0.189-1.306-0.367-1.813-0.509
						c0.062-0.196,0.999-0.122,2.525,0.228c1.495,0.425,3.616,1.044,5.911,2.155c3.587,1.883,1.385,1.106,2.031,1.392
						c1.611,0.992,2.726,1.762,3.597,2.377c0.877,0.609,1.5,1.079,2.094,1.531c0.574,0.474,1.133,0.921,1.739,1.631
						c0.291,0.364,0.657,0.74,0.969,1.274c0.161,0.261,0.334,0.541,0.521,0.844c0.175,0.31,0.32,0.669,0.495,1.043
						c0.253,0.605,0.273,0.959,0.268,1.112c-0.013,0.157-0.09,0.133-0.187,0.052c-0.192-0.163-0.456-0.548-0.449-0.248
						c-0.384-0.723-0.675-1.388-1.05-1.931c-0.172-0.281-0.335-0.549-0.493-0.807c-0.176-0.244-0.345-0.479-0.51-0.708
						c-0.315-0.47-0.655-0.878-1.005-1.276c-0.336-0.413-0.714-0.782-1.128-1.156c0,0,0.121,0.123,0.302,0.307
						c0.181,0.182,0.423,0.424,0.639,0.692c0.223,0.261,0.444,0.521,0.611,0.717c0.171,0.191,0.264,0.337,0.264,0.337
						c-0.742-0.745-2.315-2.235-3.229-2.992c0.709,0.73,3.272,2.748,4.973,5.966c0.844,1.594,1.362,3.489,1.371,5.317
						c0.012,1.834-0.473,3.527-1.09,4.814c-0.286,0.977-1.062,2.583-0.57,1.89c0,0,0.205-0.41,0.393-0.83
						c0.096-0.208,0.19-0.417,0.262-0.573c0.062-0.161,0.103-0.269,0.103-0.269c0.402-0.75,0.192,0.104-0.112,0.837
						c-0.288,0.74-0.572,1.398-0.002,0.365c-0.478,1.156-1.066,2.341-1.662,3.608c-0.297,0.646-0.596,1.275-0.894,2.005
						c-0.143,0.354-0.304,0.725-0.533,1.129c-0.108,0.197-0.217,0.396-0.328,0.598c-0.12,0.188-0.262,0.351-0.396,0.529
						l-0.641,0.361c0.056-0.006,0.437-0.435,0.851-0.992c0.179-0.313,0.365-0.657,0.531-0.982c0.157-0.323,0.254-0.614,0.334-0.848
						c-0.177,0.663-0.927,1.958-1.824,2.941c-0.428,0.53-0.851,1.065-1.206,1.565c-0.399,0.462-0.731,0.891-0.922,1.256
						c0,0,0.449-0.424,0.899-0.847c0.235-0.204,0.427-0.447,0.581-0.621c0.153-0.176,0.255-0.293,0.255-0.293
						c-0.171,0.267-0.347,0.542-0.527,0.825c-0.203,0.263-0.411,0.532-0.624,0.808c-0.43,0.552-0.878,1.126-1.336,1.713
						c-0.981,1.122-2.09,2.245-3.337,3.205c0.642-0.349,0.776-0.475,0.99-0.659c0.213-0.188,0.519-0.414,1.442-1.076
						c-0.428,0.259-0.274,0.036,0.152-0.41c0.218-0.22,0.497-0.501,0.805-0.812c0.291-0.326,0.609-0.682,0.922-1.031
						c0.616-0.705,1.244-1.349,1.494-1.756c0.257-0.401,0.233-0.468-0.317,0.092c0.84-0.803,1.471-1.596,2.143-2.464
						c0.315-0.44,0.655-1.089,0.939-1.62c0.261-0.541,0.568-1.099,0.952-1.664c-0.103,0.028-0.658,0.804,0.562-1.377
						c0.026-0.113,0.13-0.376,0.194-0.538c0.04-0.065,0.054-0.088,0.091-0.148c-0.028,0.043-0.051,0.076-0.079,0.118
						c0.04-0.103,0.042-0.112-0.03,0.046c-0.341,0.519-0.603,0.911-0.75,1.063c0.18-0.604,0.792-1.788,1.403-3.037
						c0.6-1.26,1.122-2.612,1.234-3.346c0.504-1.546-0.078,0.684,0.275-0.142c0.063,0.014,0.277-2.223,0.205-2.216
						c0.331-0.168,0.314-4.432,0.528-0.465c-0.001,0,0.088-0.896-0.036-1.794c-0.036-0.45-0.071-0.899-0.165-1.226
						c-0.073-0.329-0.122-0.549-0.122-0.549c-0.064-0.534-0.233-1.087-0.43-1.654c-0.163-0.584-0.446-1.129-0.713-1.673
						c-0.551-1.075-1.237-2.015-1.827-2.654c-0.984-1.348-3.032-2.753-1.88-1.93c0,0-0.991-0.906-2.059-1.689
						c-0.531-0.396-1.083-0.755-1.487-1.039c-0.417-0.261-0.694-0.435-0.694-0.435l-0.008-0.072c-2.161-1.433-4.551-2.601-7.077-3.6
						c-1.266-0.493-2.532-1.041-3.87-1.481c-0.66-0.243-1.326-0.487-2.001-0.735c-0.685-0.215-1.373-0.442-2.067-0.683
						c-0.421-0.098-0.846-0.196-1.288-0.299c-0.45-0.079-0.919-0.161-1.423-0.249c-1.004-0.188-2.139-0.429-3.627-0.609
						l-0.566-0.227c-1.146-0.061-2.866-0.08-4.417,0.053c-1.549,0.146-2.91,0.439-3.362,0.645c-1.25,0.03-3.958,0.783-6.597,2.114
						c-2.644,1.322-5.187,3.155-6.75,4.368l0.04,0.291c-2.083,1.696-4.079,3.55-5.783,6.635l0.305-0.072
						c-0.673,1.321-1.509,3.121-1.725,5.324c-0.122,1.093-0.06,2.269,0.194,3.421c0.102,0.601,0.301,1.104,0.462,1.659
						c0.176,0.542,0.334,1.095,0.54,1.631c-0.201-0.256-0.528-1.385-0.738-2.18c0.489,2.722,1.892,5.395,3.596,7.696
						c0.455,0.559,0.908,1.114,1.355,1.664c0.274,0.261,0.546,0.521,0.816,0.777c0.273,0.243,0.555,0.442,0.827,0.664
						c1.136,0.837,1.996,1.514,3.079,2.368c0.571,0.303,1.057,0.562,1.503,0.798c0.452,0.211,0.852,0.428,1.249,0.626
						c-0.107-0.042-0.208-0.081-0.292-0.114c0.116,0.061,0.292,0.134,0.477,0.2c0.505,0.231,1.027,0.493,1.603,0.7
						c-0.482-0.199-0.939-0.424-1.343-0.602c0.905,0.373,2.312,0.756,3.69,1.049l0.526,0.37c0.114,0.024,0.204,0.043,0.321,0.068
						c1.328,0.38,1.102,0.116,0.423-0.207c0.696,0.104,1.332,0.194,1.853,0.21c0.527,0.302,1.476,0.377,2.468,0.415
						c0.499-0.006,1.009-0.002,1.493,0.013c0.485-0.01,0.945,0.01,1.349,0.091c0.24-0.063,0.811-0.189,1.539-0.316
						c0.722-0.184,1.608-0.381,2.447-0.721c0.428-0.141,0.838-0.326,1.216-0.526c0.382-0.2,0.739-0.344,1.053-0.596
						c0.65-0.429,0.99-0.87,1.074-1.071c0.072,0.011,0.425-0.249-0.183,0.264c1.298-0.997,2.333-2.301,2.877-3.669l0.556-0.529
						c0,0,0.016-0.056,0.045-0.153c0.024-0.099,0.079-0.229,0.095-0.413c0.035-0.362,0.146-0.815,0.129-1.298
						c-0.051-0.486-0.025-0.968-0.164-1.298c-0.1-0.333-0.167-0.555-0.167-0.555c-0.2-1.114-0.737-1.887-0.912-2.088
						c-0.187-0.21,0.303-0.155,1.061,0.949c-0.184-0.343-0.46-0.629-0.667-0.894c-0.272-0.226-0.531-0.431-0.78-0.59
						c-0.271-0.127-0.525-0.234-0.76-0.328c-0.243-0.046-0.468-0.089-0.678-0.129c-0.415-0.053-0.768-0.015-1.078,0.005
						c-0.302,0.064-0.577,0.108-0.83,0.187c-0.244,0.099-0.481,0.195-0.736,0.298c-0.232,0.142-0.483,0.289-0.753,0.476
						c-0.496,0.424-1.13,0.995-1.601,2.065l-0.053-0.291c-0.483,0.823-0.696,2.093-0.576,3.146l1.179,0.052
						c0.056-0.69,0.406-1.086,0.623-1.088c0.199-0.048,0.516-0.044,0.911,0.242c0.385,0.283,0.75,0.819,0.803,1.487
						c0.071,0.598-0.278,1.465-0.826,2.143c-0.573,0.675-1.443,1.219-2.336,1.271c-0.893,0.045-1.659-0.418-2.181-1.389
						c-0.577-0.942-0.86-2.013-0.844-3.102c0.029-2.197,1.229-4.261,2.555-5.685c-0.7,0.422-0.106-0.296,0.787-1.048
						c0.884-0.764,2.072-1.456,2.095-1.716c0.459-0.153,1.453-0.574,0.413,0.134c1.671-1.077,3.154-1.392,4.379-1.425
						c1.228,0.036,2.244,0.235,3.343,0.851c0.119,0.183-0.064,0.103-0.239,0.017c-0.185-0.074-0.375-0.13-0.247-0.012
						c0.259,0.089,0.945,0.585,1.13,0.926c0.095,0.155-0.019,0.079-0.206-0.073c-0.091-0.079-0.201-0.176-0.316-0.275
						c-0.124-0.081-0.252-0.163-0.364-0.236c0.68,0.504,1.119,1.076,1.457,1.526c0.346,0.449,0.556,0.808,0.752,1.06
						c0.365,0.521,0.604,0.646,0.832,0.74c0.171,1.046,0.21,1.838,0.245,2.563c0.046,0.723,0.088,1.378,0.14,2.183
						c-0.097,0.375-0.235,0.869-0.303,0.938c-0.076,0.069-0.032-0.287,0.041-1.604c-0.029,0.738-0.37,2.996-0.956,5.069
						c-0.131,0.526-0.286,1.019-0.449,1.459c-0.149,0.449-0.287,0.865-0.405,1.222c-0.305,0.684-0.48,1.157-0.427,1.229
						c-0.216,0.412-1.104,1.754-1.266,2.122c-0.537,0.642-0.931,1.155-1.303,1.558c-0.393,0.385-0.717,0.702-1.039,1.018
						c-0.313,0.325-0.693,0.576-1.105,0.93c-0.406,0.362-0.935,0.718-1.622,1.176l0.791-0.463c-0.444,0.502-0.979,0.97-1.77,1.335
						c-0.39,0.191-0.808,0.421-1.3,0.633c-0.499,0.198-1.046,0.433-1.662,0.705l0.06-0.064c-0.739,0.222-1.333,0.399-1.818,0.545
						c-0.492,0.117-0.874,0.209-1.182,0.282c-0.612,0.158-0.93,0.247-1.252,0.309c-0.637,0.115-1.271,0.395-4.308,0.369l0.339,0.231
						c-0.137,0.133-0.548,0.188-1.142,0.202c-0.593,0.005-1.366-0.105-2.224-0.203c-1.7-0.3-3.746-0.84-5.5-1.18
						c0,0,0.305,0.109,0.611,0.22c0.305,0.113,0.614,0.212,0.614,0.212c-1.965-0.258-5.119-2.001-6.888-2.758
						c-0.385-0.18,0.653,0.148,1.221,0.309c-2.352-0.955-2.515-0.969-2.564-0.852c-0.048,0.116,0.041,0.337-1.74-0.334
						c-0.569-0.436,0.978-0.014-1.323-1.085c-0.272-0.164-0.841-0.402-1.585-0.705c-0.729-0.335-1.629-0.748-2.589-1.188
						c-1.877-0.963-3.947-2.199-5.188-3.41c0.511,0.577,1.028,1.158-0.4,0.14c-1.088-0.8-2.367-2.107-3.537-3.435
						c-0.55-0.694-1.163-1.323-1.645-1.963c-0.487-0.637-0.96-1.194-1.408-1.617c-0.158-0.303-0.185-0.434-0.168-0.463
						c-0.281-0.424-0.648-0.979-1.053-1.589c-0.392-0.619-0.709-1.354-1.08-2.036c-0.396-0.675-0.593-1.402-0.855-1.982
						c-0.232-0.592-0.474-1.057-0.58-1.354c0.089-0.521-0.074-1.552-0.36-2.81c-0.115-0.636-0.241-1.332-0.372-2.054
						c-0.135-0.72-0.302-1.461-0.378-2.2c-0.096-0.738-0.191-1.461-0.278-2.129c-0.086-0.67-0.085-1.291-0.109-1.817
						c-0.028-1.053,0.017-1.729,0.208-1.718c0,0,0-0.397,0.016-0.993c0.014-0.597,0.033-1.392,0.051-2.187
						c0.101-1.588,0.246-3.174,0.246-3.174l0.063,0.176c0.528-4.029,0.733-5.456,0.822-6.905c0.259-0.913,0.172-0.222,0.194-0.139
						c0.397-1.44,0.704-2.556,0.963-3.495c0.287-0.929,0.508-1.687,0.705-2.421c0.209-0.728,0.411-1.427,0.648-2.249
						c0.211-0.83,0.496-1.763,0.894-2.954l0.426-0.387c0.088-0.33,0.362-0.983,0.816-1.83c0.44-0.854,0.98-1.941,1.709-3.078
						c1.336-2.343,3.296-4.948,5.081-7.182c-0.017,0.06-0.063,0.178-0.344,0.526c1.982-2.441,5.326-4.803,8.084-6.701
						c2.801-1.908,5.371-3.11,6.24-4.067c0,0,0.233-0.138,0.6-0.303c0.365-0.174,0.851-0.406,1.337-0.638
						c0.484-0.236,0.975-0.467,1.362-0.621c0.38-0.161,0.634-0.268,0.634-0.268c-5.288,1.985,0.625-0.696-1.59,0.013
						c2.075-0.855,5.531-1.679,2.958-0.748l-0.421,0.105c-0.389,0.387,1.281-0.176,3.037-0.716c0.892-0.204,1.8-0.482,2.493-0.571
						c0.695-0.082,1.155-0.111,1.129-0.026c0.333-0.046,0.664-0.117,0.997-0.143l0.998-0.021c0.665-0.015,1.319-0.046,2.026,0.009
						c1.393,0.069,2.763,0.14,4.11,0.274c0.666,0.088,1.345,0.132,1.998,0.255c0.648,0.135,1.306,0.241,1.942,0.397l1.86,0.594
						l1.817,0.774c1.192,0.583,2.37,1.193,3.53,1.857c1.137,0.678,2.237,1.383,3.338,2.083c1.03,0.799,2.109,1.526,3.09,2.365
						l1.447,1.278c0.49,0.416,0.964,0.846,1.393,1.321c0,0-0.562-1.112-0.584-1.093c0,0,0.181,0.136,0.406,0.388
						c0.233,0.244,0.543,0.568,0.854,0.894c0.621,0.649,1.242,1.298,1.242,1.298c0.297,0.368,0.427,0.667,0.31,0.609
						c-0.113-0.061-0.52-0.44-1.408-1.355c0.395,0.551,1.173,1.28,1.795,1.934c0.633,0.646,1.16,1.184,1.22,1.185
						c0.677,1.04,0.901,1.483,0.891,1.576c-0.007,0.09-0.207-0.191-0.507-0.535c-0.559-0.712-1.438-1.707-0.983-1.109
						c0,0,0.322,0.396,0.602,0.817c0.292,0.414,0.57,0.836,0.57,0.836s-0.05-0.103-0.101-0.207c-0.055-0.1-0.11-0.201-0.11-0.201
						c0.503,0.651,0.797,1.001,1.141,1.519c0.163,0.263,0.341,0.567,0.563,0.975c0.181,0.423,0.443,0.938,0.672,1.652
						c0.266,0.911,0.272,1.158,0.24,1.269c-0.024,0.108-0.075,0.076,0.003,0.434c-0.041,0.002,0.051,0.24,0.219,1.102
						c0,0,0.179,1.066,0.197,2.16c0.033,0.545-0.006,1.086-0.007,1.492c-0.034,0.401-0.057,0.668-0.057,0.668s0.114-0.419,0.2-0.853
						c0.077-0.438,0.153-0.877,0.153-0.877c0.188,1.972-0.448,4.09,0.218,2.138c-0.243,0.708-0.458,2.161-1.369,3.407
						c-0.957,1.26-2.647,2.532-4.416,3.058c-0.879,0.261-1.773,0.293-2.445,0.008c-0.673-0.259-1.143-0.9-1.389-1.488
						c-0.519-1.21,0.104-2.085,0.369-2.278c0.359-0.49,0.947-0.837,1.624-0.973c-0.173-0.408-0.349-0.823-0.524-1.237
						c-0.49,0.428-0.914,1.091-0.932,1.852c-0.03,0.751,0.335,1.485,0.976,1.944c0.316,0.232,0.741,0.373,1.172,0.355
						c0.434-0.009,0.849-0.188,1.152-0.427c0.625-0.477,0.949-1.163,1.219-1.691c-0.219,0.38-0.484,0.662-0.487,0.493
						c-0.017-0.179,0.257-0.732,0.842-2.165c0.056,0.649,0.879-0.613,0.996-2.686c0.038-1.018-0.201-2.172-0.511-3.089
						c-0.153-0.475-0.234-0.951-0.407-1.359c-0.163-0.411-0.3-0.789-0.396-1.113c0.195,0.565,0.025,0.326-0.313-0.279
						c-0.161-0.308-0.466-0.648-0.749-1.054c-0.291-0.402-0.605-0.845-0.986-1.201c-0.364-0.373-0.721-0.739-1.032-1.058
						c-0.343-0.276-0.642-0.501-0.852-0.648c-0.42-0.293-0.487-0.257,0.105,0.388c-1.937-1.696,0.051-0.286-1.365-1.678
						c-2.546-1.747-5.413-3.538-8.67-4.949c-0.398-0.187-0.799-0.375-1.202-0.565c-0.366-0.192-0.733-0.386-1.104-0.581
						c-0.72-0.362-1.592-0.884-2.407-1.304c-0.872-0.344-1.845-0.728-2.628-1.007c-0.809-0.277-1.679-0.628-2.562-0.983
						c-0.141,0.04,0.978,0.635-0.566,0.156c0,0-0.898-0.441-1.797-0.881c-0.461-0.204-0.922-0.408-1.268-0.56
						c-0.345-0.159-0.584-0.242-0.584-0.242c-1.479-0.334-1.44,0.083-4.085-0.684c0.374,0.129,0.924,0.322-0.075,0.205
						c-7.292-1.329-15.362,0.196-21.637,4.667c-3.131,2.227-5.742,5.132-7.752,8.37c-0.464,0.833-0.99,1.627-1.411,2.489
						c-0.396,0.872-0.865,1.731-1.176,2.619c-0.725,1.761-1.292,3.533-1.972,5.211c0.771-1.815,0.387-0.569-0.084,0.871
						c0.352-0.921,0.202,0.089,0.375-0.054c0,0-0.585,1.43-1.171,2.86c-0.591,1.425-1.14,2.887-1.14,2.887
						c-0.02,0.589-0.552,2.162-0.95,3.73c-0.212,0.778-0.421,1.541-0.569,2.153c-0.12,0.621-0.157,1.097-0.115,1.272
						c0,0,0.081-0.489,0.161-0.979c0.096-0.485,0.224-0.96,0.224-0.96c-0.331,2.601,1.776-3.313,2.127-2.788
						c0.258-1.438,0.969-3.21,1.812-5.194c0.838-1.962,1.719-4.248,2.133-6.596c0.41-0.966-0.125,0.904,0.151,0.4
						c0.077-0.61,0.236-1.248,0.499-2.044c0.23-0.816,0.671-1.729,1.247-2.905l-0.075,0.293c1.622-3.33,3.321-5.432,5.253-7.358
						c1.966-1.888,4.25-3.676,8.041-5.25l-0.657,0.019c1.649-0.668,2.018-0.744,2.832-0.917c0.924-0.457-0.292-0.154-1.474,0.314
						c-1.176,0.479-2.375,0.981-1.601,0.432c1.182-0.271,4.092-1.461,7.123-1.923c3.011-0.544,6.002-0.37,6.765-0.072
						c2.711,0.235-0.777-0.358,1.945-0.092l0.696,0.25l0.717-0.089c1.767,0.363,2.595,0.792,2.627,0.934
						c-0.417-0.136-1.202-0.275-1.661-0.344c1.118,0.293,2.688,0.733,4.074,1.154c1.382,0.444,2.577,0.875,2.937,1.064
						c0,0-0.606-0.269-1.213-0.538c-0.612-0.249-1.226-0.497-1.226-0.497c0.89,0.298,1.799,0.628,2.715,1.008
						c0.89,0.362,2.053,0.732,2.935,1.075c0.455,0.181,0.923,0.321,1.374,0.535l1.341,0.714c0.927,0.468,2.06,1.064,2.962,1.438
						c3.815,1.614,7.452,3.641,10.165,5.984l-0.344-0.434c1.138,0.807,1.718,1.565,2.257,2.102c0.439,0.605,0.744,1.069,1.048,1.548
						c0.221,0.528,0.499,1.038,0.794,1.792c0.216,0.786,0.708,1.774,0.779,3.122l-0.044-0.198c0.226,1.082-0.122,2.607-0.888,4.086
						c0.271-0.716-0.089-0.096-0.449,0.461c-0.178,0.224-0.312,0.414-0.392,0.422c-0.073,0.01-0.045-0.001,0.105-0.342
						c-0.222,0.443-0.441,0.575-0.506,0.595c-0.069,0.03-0.169,0.023-0.272-0.049c-0.192-0.153-0.281-0.337-0.299-0.444
						c-0.029-0.115-0.067-0.198-0.052-0.322c-0.011-0.131,0.032-0.311,0.277-0.641l1.385-1.867l-1.858,0.749
						c-0.35,0.141-0.822,0.201-1.319,0.551c0.006,0.011-0.276,0.052-0.521,0.187c-0.248,0.141-0.495,0.281-0.495,0.281
						c-0.29,0.303-0.418,0.622-0.581,0.869c-0.103,0.288-0.198,0.563-0.286,0.893c-0.09,0.657-0.203,1.729,0.792,3.139
						c-0.438-0.547-0.533-0.754-0.554-0.717c-0.033,0.044,0.041,0.312,0.167,0.544c0.111,0.241,0.224,0.479,0.179,0.491
						c-0.022,0.005-0.085-0.046-0.207-0.187c-0.102-0.155-0.346-0.338-0.51-0.761c0.361,0.92,0.958,1.738,1.811,2.196
						c0.815,0.47,1.718,0.615,2.465,0.548c1.527-0.106,2.645-0.683,3.563-1.243c1.81-1.198,2.956-2.356,4.001-3.851
						c0.211-0.857,0.132-0.891-0.066-0.533c-0.182,0.348-0.551,1.154-1.132,1.801c-1.103,1.335-2.699,2.312-1.976,1.78
						c-0.679,0.338-0.147-0.068,0.64-0.83c0.783-0.749,1.778-2.012,2.092-3.061c0.341-1.024,0.697-1.897,0.931-3.222
						c0.123-0.661,0.214-1.434,0.216-2.386c-0.01-0.942-0.064-2.103-0.437-3.442c0.123,0.54,0.18,0.565,0.29,1.106
						c-0.278-2.084-1.211-3.891-2.269-6.173c-0.935-1.089-1.786-2.74-2.347-2.814c0,0,0.192,0.242,0.48,0.605
						c0.287,0.364,0.631,0.881,0.992,1.385c0.323,0.531,0.665,1.052,0.887,1.464c0.219,0.415,0.364,0.691,0.364,0.691
						c-0.653-1.264-1.521-2.339-2.522-3.55c-0.506-0.604-1.071-1.225-1.688-1.917c-0.648-0.66-1.345-1.393-2.096-2.251
						c0.3,0.195,1.318,1.096,2.013,1.73c-0.862-1.021-1.803-1.839-2.768-2.834c0.601-0.063,4.388,4.052,6.187,6.56
						c-0.161-0.334-0.473-0.785-0.812-1.266c-0.356-0.465-0.761-0.945-1.104-1.351c-0.714-0.783-1.165-1.303-0.509-0.862
						c-0.926-0.649-1.854-1.575-2.876-2.696c-0.537-0.531-1.143-1.059-1.777-1.609c-0.32-0.273-0.652-0.546-0.999-0.815
						c-0.352-0.262-0.746-0.484-1.14-0.716l0.338-0.046c-0.492-0.311-1.516-0.938-2.377-1.555c0,0,0.114,0.044,0.274,0.13
						c0.162,0.083,0.378,0.194,0.595,0.305c0.435,0.223,0.869,0.447,0.869,0.447c-0.646-0.375-1.218-0.826-1.828-1.208
						c-0.61-0.382-1.199-0.78-1.785-1.181c-0.585-0.407-1.169-0.804-1.775-1.14c-0.601-0.351-1.211-0.688-1.876-0.963
						c2.647,1.343,2.862,1.606,2.744,1.636c-0.129,0.033-0.629-0.137,0.396,0.589c-1.605-0.849-2.63-1.392-3.391-1.794
						c-0.756-0.416-1.209-0.745-1.728-1.04c-0.522-0.287-1.016-0.68-1.979-1.028c-0.479-0.172-1.053-0.401-1.771-0.59
						c-0.72-0.133-1.587-0.349-2.622-0.452c1.136,0.072,4.187,0.948,2.41,0.667c-1.557-0.393-3.62-0.705-4.566-0.894
						c-5.382-0.271,0.803,0.289-1.49,0.3c-0.906-0.2-1.549-0.19-2.27-0.149c-0.714,0.036-1.574,0.217-2.771,0.283l-0.04-0.24
						c-3.173,0.307-3.516,0.666-3.813,0.847c-0.284,0.231-0.543,0.296-3.179,1.128c0,0,0.528-0.268,1.057-0.536
						c0.266-0.135,0.532-0.269,0.732-0.37c0.207-0.087,0.346-0.145,0.346-0.145c0,0-0.18,0.045-0.438,0.136
						c-0.255,0.095-0.596,0.222-0.937,0.35c-0.68,0.254-1.36,0.509-1.36,0.509l0.476-0.453c-1.456,0.615-2.364,0.998-3.317,1.35
						c-0.944,0.419-1.943,0.717-3.348,1.377c0.728-0.151-0.2,0.526-2.553,1.876c-1.655,0.847,0.75-0.781-2.495,1.324
						c0.622-0.632,1.369-1.277,2.933-1.948c0.102-0.168,0.689-0.542,0.812-0.693c-0.954,0.362-2.021,1.062-3.053,1.665
						c-0.978,0.683-1.893,1.322-2.472,1.726c0.45-0.304,0.998-0.653,1.29-0.811c0,0-1.142,0.834-2.188,1.773
						c-1.081,0.908-2.089,1.842-2.089,1.842c-0.733,0.472-0.242-0.016,0.246-0.499c-0.854,0.721-1.396,1.29-2.639,2.415
						c0.19-0.441-0.024-0.541,1.737-2.119c0,0-1.002,0.877-1.978,1.82c-0.989,0.929-1.886,2.001-1.886,2.001
						c-0.379,0.184-1.954,2.01-1.586,1.411c-0.477,0.583-1.03,1.222-1.506,1.982c-0.464,0.764-0.959,1.579-1.47,2.421
						c-0.453,0.87-0.919,1.765-1.386,2.662c-0.469,0.895-0.867,1.823-1.341,2.691c-0.047,0.204-0.22,0.577-0.498,1.367
						c-1.511,3.372-2.729,6.451-3.535,10.737c0,0-0.235,0.58-0.47,1.159c-0.21,0.591-0.42,1.183-0.42,1.183
						c-0.597,3.38,1.09-3.201,0.108,2.409c-0.47,3.999-0.513,1.443-0.815,2.837c-0.043,1.009-0.01,2.397-0.068,3.98
						c0.035,1.593-0.05,3.383-0.088,5.246C8.923,57.133,8.947,56.163,8.979,55.019z M28.769,89.823
						c-0.375-0.167-0.939-0.42-1.474-0.658c-0.519-0.274-1-0.564-1.221-0.779c0.471,0.123,0.842,0.304,1.241,0.555
						C27.725,89.172,28.168,89.461,28.769,89.823z M71.819,67.564c0.405,0.486,0.875,1.382,1.098,2.461
						C72.656,69.276,72.324,68.441,71.819,67.564z M88.962,60.102c-0.021-0.029-0.036-0.053-0.052-0.076
						C88.106,58.247,88.391,58.883,88.962,60.102z M90.012,64.008c0.07,0.402,0.102,0.372,0.119,0.195
						c-0.05-0.286-0.241-1.174-0.476-2.193C89.646,62.313,89.783,62.821,90.012,64.008z M84.826,28.017l-0.097-0.679
						C85.151,28.83,84.99,28.418,84.826,28.017z"/>
					<path fill="#3E3049" d="M73.757,74.739c-0.054,0.232-0.103,0.296-0.151,0.346C73.609,75.412,73.676,75.43,73.757,74.739z"/>
					<path fill="#3E3049" d="M14.765,29.557l0.058-0.115c0.019-0.071,0.021-0.11,0.018-0.137L14.765,29.557z"/>
					<path fill="#3E3049" d="M41.013,51.653c-0.631,0.394-0.98,0.626-1.228,0.759C39.8,52.493,40.071,52.287,41.013,51.653z"/>
					<path fill="#3E3049" d="M82.599,82.835c0,0,0.421-0.449,0.758-0.981c0.354-0.513,0.709-1.026,0.709-1.026
						c-0.713,0.97-0.965,1.325-1.413,1.734C82.733,82.556,83.108,82.258,82.599,82.835z"/>
					<path fill="#3E3049" d="M64.814,93.771c-0.306,0.171-0.668,0.306-0.971,0.476l0.127,0.065
						C65.322,93.692,66.229,93.183,64.814,93.771z"/>
					<path fill="#3E3049" d="M80.49,83.989c-0.257,0.023-1.281,1.132-2.509,2.299c0.077-0.066,0.148-0.127,0.229-0.195
						C78.025,86.643,79.317,85.361,80.49,83.989z"/>
					<path fill="#3E3049" d="M77.688,86.547c-0.392,0.347-0.791,0.694-1.186,1.017C76.422,87.782,77.001,87.171,77.688,86.547z"/>
					<path fill="#3E3049" d="M89.755,69.136c-0.302,0.807,0.104,0.61-0.145,1.043c-0.046,0.505,0.397-0.893,0.497-1.888
						c0.044-0.498,0.057-0.873,0.019-0.827C90.062,67.501,90.054,67.989,89.755,69.136z"/>
					<path fill="#3E3049" d="M79.058,84.493l0.61-0.239c0.015,0.013,0.493-0.826,0.493-0.826s-0.267,0.275-0.533,0.551
						C79.343,84.236,79.058,84.493,79.058,84.493z"/>
					<path fill="#3E3049" d="M86.544,73.766c0,0-0.333,0.576-0.665,1.151c-0.34,0.572-0.63,1.168-0.63,1.168
						c0.059-0.014-0.076,0.289-0.225,0.68C85.7,75.281,86.645,73.753,86.544,73.766z"/>
					<path fill="#3E3049" d="M85.024,76.765c-0.316,0.785-0.704,1.524-0.901,1.978c0.107-0.212,0.278-0.546,0.463-0.906
						C84.758,77.475,84.898,77.084,85.024,76.765z"/>
					<path fill="#3E3049" d="M81.476,81.773c-0.001,0,0.564-0.554,0.548-0.568l1.12-1.511
						C83.144,79.694,81.538,81.826,81.476,81.773z"/>
					<path fill="#3E3049" d="M77.278,50.507c0,0-0.652-0.331-1.315-0.637c-0.658-0.316-1.333-0.596-1.333-0.596
						c-0.309-0.04,0.399,0.319,1.382,0.777C76.665,50.3,77.635,50.793,77.278,50.507z"/>
					<path fill="#3E3049" d="M84.014,56.089c-0.53-0.562-0.529-0.638-0.798-0.999l-0.27,0.182L84.014,56.089z"/>
					<path fill="#3E3049" d="M77.191,51.323c-0.28-0.095-3.818-1.665-0.57-0.052C76.92,51.324,79.462,52.668,77.191,51.323z"/>
					<polygon fill="#3E3049" points="37.04,53.772 37.582,53.277 37.166,52.963 					"/>
					<path fill="#3E3049" d="M48.613,81.091c-1.601-0.461-1.8-0.453-1.971-0.428c-0.161,0.011-0.323,0.088-1.68-0.499
						c-0.377-0.084,0.167,0.171,0.731,0.396c0.571,0.212,1.143,0.423,0.748,0.352C48.405,81.359,49.447,81.612,48.613,81.091z"/>
					<path fill="#3E3049" d="M46.441,80.912c-0.315-0.075-0.648-0.155-1.002-0.239C46.003,80.822,46.272,80.88,46.441,80.912z"/>
					<path fill="#3E3049" d="M11.481,43.02c0,0-0.176,0.537-0.352,1.075c-0.088,0.269-0.176,0.539-0.242,0.74
						c-0.071,0.2-0.095,0.342-0.095,0.342c-0.03-0.012,0.538-1.369,0.538-1.369L11.481,43.02z"/>
					<path fill="#3E3049" d="M10.867,47.329l-0.42,0.467l0.032,1.383C10.562,48.673,10.722,47.696,10.867,47.329z"/>
					<path fill="#3E3049" d="M34.252,93.016l0.188-0.01c-0.296-0.209-0.792-0.413-1.776-0.82L34.252,93.016z"/>
					<path fill="#3E3049" d="M11.389,72.818c-0.017,0.007,0.215,0.502,0.215,0.502c0,0-0.047-0.258-0.074-0.521
						c-0.014-0.268-0.028-0.535-0.028-0.535L11.389,72.818z"/>
					<path fill="#3E3049" d="M9.068,47.085c-0.151,1.049-0.316,2.282-0.393,3.35C8.852,48.122,9.495,46.859,9.068,47.085z"/>
				</g>
			</g>
		</g>
	</g>
</g>
<g>
	<path fill="#5D93CE" d="M50.963,27.103c0.307-0.674,1.438-1.313,1.887-1.998c0.455-0.691,0.791-1.455,0.932-2.273
		c0.257-1.499-0.161-2.991-0.911-4.288c-5.145-8.889-16.303-6.809-23.942-2.987c-5.2,2.602-8.588,7.053-11.456,11.926
		c1.396-2.331,2.262-4.784,4.024-6.955c1.813-2.234,3.872-4.261,6.133-6.04c1.866-1.468,4.25-3.543,6.635-3.969
		c5.591-1,11.05-3.55,16.806-1.635c2.766,0.92,4.816,2.855,6.088,5.456c2.727,5.576,0.124,14.002-5.576,16.729
		c-3.222,1.611-6.691-1.735-4.337-4.585C48.36,25.12,52.202,24.376,50.963,27.103z"/>
</g>
<g>
	<path fill="#3E3049" d="M48.25,25.5c1.375-2,2.875,0.25,3.5,1.625c1.125,2.375,1,4.25-0.125,6.25
		C56.375,32.25,55.75,24.75,53,21.75c-2.75-2.875-6.5,2.375-5.75,5.375c0.375-0.875,1.625-1.75,1.5-2.25"/>
</g>
<g>
	<path fill="#3E3049" d="M54.542,33.373c0.4,0.014,0.771,0.083,1.107,0.399c0.263,0.246,0.489,0.563,0.708,0.825
		c0.495,0.592,0.948,1.218,1.374,1.862c0.616,0.931,1.166,1.907,1.644,2.916C56.25,39.5,52.75,39.5,49.5,39.25
		c-3.5-0.375-7.25,0.125-10.75-0.375c0.937-1.639,2.52-2.584,3.881-3.82c0.59-0.536,1.251-1.005,1.875-1.493
		c0.531-0.414,1.625-0.191,2.272-0.194c0.826-0.004,1.652-0.005,2.479,0.005c1.53,0.021,3.054-0.04,4.583-0.004
		C54.083,33.375,54.317,33.365,54.542,33.373z"/>
</g>
<g>
	<path fill="#F1E785" d="M54.454,46.568c-0.053-1.203-0.013-2.408,0.024-3.611c0.016-0.524,0.04-1.034-0.029-1.554
		c-0.056-0.414,0.046-0.791,0.081-1.204c0.032-0.379,0.134-0.919,0.001-1.287c-0.131-0.365-0.435-0.261-0.798-0.268
		c-0.512-0.01-1.074-0.044-1.605-0.056c-0.858-0.019-1.741-0.006-2.595,0.04c-1.369,0.073-2.723,0.035-4.097,0.096
		c-0.325,0.015-0.712-0.049-1.025-0.003c0.027,0.651-0.121,1.313-0.151,1.961c-0.036,0.737-0.038,1.478,0.023,2.213
		c0.103,1.244,0.292,2.487,0.246,3.738c-0.029,0.81-0.057,1.574-0.053,2.388c0.004,0.852,0.05,1.702,0.094,2.553
		c0.04,0.771,0.626,0.5,1.246,0.551c0.248,0.021,0.467,0.116,0.708,0.159c0.39,0.069,0.811,0.027,1.205,0.027
		c1.757,0.002,3.515,0.012,5.271,0.063c0.381,0.011,1.048,0.147,1.393-0.002c0.246-0.106,0.194-0.175,0.163-0.469
		c-0.055-0.52-0.016-1.074,0.005-1.6C54.61,49.057,54.509,47.811,54.454,46.568z"/>
</g>
<g>
	<path fill="#3E3049" d="M42.986,56.294c-0.161-0.01-0.324-0.035-0.5-0.104c-0.478-0.188-0.903-0.49-1.319-0.786
		c-0.519-0.369-1.009-0.84-1.441-1.306c-0.542-0.583-1.106-1.172-1.679-1.723c-0.228-0.218-0.55-0.384-0.666-0.679
		c1.485-0.072,2.973-0.113,4.459-0.132c3.407-0.042,6.813,0.033,10.219,0.111c3.498,0.08,6.998-0.254,10.483-0.038
		c-0.47-0.029-1.38,1.641-1.69,1.95c-0.651,0.649-1.345,1.262-2.042,1.86c-0.517,0.443-1.242,0.902-1.918,1.051
		c-0.688,0.15-1.382-0.123-2.068-0.129c-1.163-0.012-2.326-0.038-3.49-0.052c-1.479-0.018-2.958-0.032-4.437,0.019
		c-1.077,0.036-2.115,0.09-3.188-0.022C43.449,56.287,43.22,56.309,42.986,56.294z"/>
</g>
</svg>
