<?xml version="1.0" encoding="utf-8"?>
<!-- Generator: Adobe Illustrator 16.0.0, SVG Export Plug-In . SVG Version: 6.00 Build 0)  -->
<!DOCTYPE svg PUBLIC "-//W3C//DTD SVG 1.1//EN" "http://www.w3.org/Graphics/SVG/1.1/DTD/svg11.dtd">
<svg version="1.1" id="Layer_1" xmlns="http://www.w3.org/2000/svg" xmlns:xlink="http://www.w3.org/1999/xlink" x="0px" y="0px"
	 width="500px" height="80px" viewBox="0 0 500 80" enable-background="new 0 0 500 80" xml:space="preserve">
<g>
	<g>
		<g>
			<g>
				<path fill="#4270A7" d="M462.501,49.681c0.631,0.146,0.404-0.11,0.499-0.127C461.945,49.347,462.527,49.753,462.501,49.681z"/>
				<path fill="#4270A7" d="M452.095,49.038l0.184-0.206c0,0-0.383,0.101-0.767,0.201c-0.384,0.111-0.768,0.223-0.768,0.223
					L452.095,49.038z"/>
				<path fill="#4270A7" d="M442.363,48.106c0.46,0.735,1.341,0.726,2.324,0.647c0.983-0.084,2.068-0.224,2.936,0.059l0.286,0.286
					l0.781-0.827C446.584,48.138,443.847,48.611,442.363,48.106z"/>
				<path fill="#4270A7" d="M437.174,44.212c0.32,0.676-1.122,0.347,1.21,0.396c-0.117-0.085-0.15-0.129-0.219-0.189
					C437.955,44.391,437.666,44.341,437.174,44.212z"/>
				<path fill="#4270A7" d="M438.165,44.419C439.189,44.554,437.494,43.792,438.165,44.419L438.165,44.419z"/>
				<path fill="#4270A7" d="M433.432,44.019l1.351-0.382c-0.282-0.434-1.484-0.739-1.037-0.948
					C432.36,42.764,432.645,43.24,433.432,44.019z"/>
				<path fill="#4270A7" d="M432.152,45.131l0.699-0.172C432.729,44.773,432.544,44.685,432.152,45.131z"/>
				<path fill="#4270A7" d="M434.336,44.621l-1.484,0.338c0.195,0.313,0.216,0.875,0.682-0.106
					C433.411,45.353,433.705,44.891,434.336,44.621z"/>
				<path fill="#4270A7" d="M435.175,44.997c0.758,0.472,1.736,0.808,0.381,1.216C438.139,46.286,437.758,45.154,435.175,44.997z"/>
				<path fill="#4270A7" d="M441.866,49.517l1.013,0.445l0.875-0.415C443.316,49.756,441.804,49.077,441.866,49.517z"/>
				<path fill="#4270A7" d="M425.022,41.745c-0.084,0.425,0.454,1.227,0.555,1.788l0.997-0.358
					C426.062,42.816,425.091,42.403,425.022,41.745z"/>
				<path fill="#4270A7" d="M425.577,43.533l-1.492,0.571C425.418,44.339,425.662,44.02,425.577,43.533z"/>
				<path fill="#4270A7" d="M431.911,47.101c0,0,0.613-0.286,1.226-0.572c0.612-0.269,1.226-0.536,1.226-0.536
					s-0.73,0.261-1.462,0.521c-0.73,0.284-1.461,0.568-1.461,0.568L431.911,47.101z"/>
				<polygon fill="#4270A7" points="419.324,40.837 420.17,39.871 418.664,41.31 				"/>
				<path fill="#4270A7" d="M415.545,40.503c0.626-0.866-0.857-1.752-0.196-2.245c-1.026,0.003-1.903,0.706-2.692,1.365
					C413.495,39.311,414.389,39.563,415.545,40.503z"/>
				<path fill="#4270A7" d="M411.331,40.58c0.419-0.194,0.853-0.568,1.325-0.956C412.211,39.792,411.772,40.063,411.331,40.58z"/>
				<path fill="#4270A7" d="M421.544,43.597c-0.115-0.291-0.338-1.045-1.174-1.469l0.586,1.383
					C421.136,43.537,421.338,43.566,421.544,43.597z"/>
				<path fill="#4270A7" d="M420.977,43.555l-0.021-0.044c-0.637-0.107-1.078-0.182-1.268-0.214
					C419.852,43.329,420.239,43.407,420.977,43.555z"/>
				<path fill="#4270A7" d="M421.692,43.619c-0.055-0.008-0.095-0.014-0.148-0.022C421.601,43.73,421.635,43.777,421.692,43.619z"/>
				<path fill="#4270A7" d="M428,45.741c-0.876,0.553-2.703,1.171-0.935,2.29C427.693,47.267,426.682,46.609,428,45.741z"/>
				<path fill="#4270A7" d="M422.421,45.299l1.584,0.425c-0.03-0.33-0.316-0.841,0.117-1.143L422.421,45.299z"/>
				<polygon fill="#4270A7" points="421.645,45.64 422.421,45.299 421.833,45.138 				"/>
				<path fill="#4270A7" d="M414.045,42.259c-0.684,0.552-1.433,0.534-2.278,0.552c0.906,0.38,1.844,0.619,2.733,0.699
					C414.626,43.072,415.017,42.315,414.045,42.259z"/>
				<path fill="#4270A7" d="M417.414,43.014c-0.048,0.026-0.108,0.035-0.152,0.063C417.355,43.202,417.431,43.248,417.414,43.014z"
					/>
				<path fill="#4270A7" d="M403.439,42.042c0.045,0.102,0.087,0.198,0.134,0.304c0.01-0.093,0.02-0.178,0.03-0.275L403.439,42.042z
					"/>
				<path fill="#4270A7" d="M414.652,43.789c0.681,0.335,1.089,0.023,1.477-0.369c-0.51,0.091-1.05,0.133-1.629,0.09
					C414.443,43.707,414.434,43.84,414.652,43.789z"/>
				<path fill="#4270A7" d="M409.008,41.016c0.354,0.357,0.757,0.668,1.18,0.956C409.841,41.463,409.133,40.634,409.008,41.016z"/>
				<path fill="#4270A7" d="M417.032,42.669c0.034-0.018,0.064-0.04,0.102-0.05C416.911,42.297,416.938,42.445,417.032,42.669z"/>
				<path fill="#4270A7" d="M417.032,42.669c-0.351,0.159-0.627,0.472-0.903,0.751c0.414-0.069,0.799-0.177,1.133-0.344
					C417.178,42.97,417.093,42.812,417.032,42.669z"/>
				<path fill="#4270A7" d="M400.916,52.42c0.121-1.547,1.912-2.907,3.458-1.307c1.522-1.111,0.527-5.892-0.801-8.768
					c-0.048,0.65-0.048,1.238-1.613,2.031c0.548,0.876,3.475,2.094,2.153,3.374c-2.074,0.707-1.7-0.581-2.708-1.429
					c0.856,1.91-2.64,2.698-2.188,5.568l1.819-1C401.07,51.324,400.411,52.026,400.916,52.42z"/>
				<path fill="#4270A7" d="M406.557,42.748l0.645-0.125c-0.735-0.315-1.261-0.934-2.229-2.186
					c-1.072,0.607-1.295,1.145-1.369,1.633l3.174,0.48L406.557,42.748z"/>
				<path fill="#4270A7" d="M410.094,42.881c-0.503,1.463-2.05,2.03-1.103,3.748c1.892-0.015,1.325-1.203,2.455-1.776
					c-3.052,0.153,0.877-0.765-1.328-1.796c0.6-0.204,1.139-0.231,1.648-0.246c-0.55-0.232-1.08-0.509-1.579-0.839
					c0.027,0.039,0.047,0.067,0.07,0.101l0.015-0.003l-0.003,0.023c0.131,0.201,0.175,0.32,0.026,0.196
					c-0.011,0.018-0.048,0.021-0.063,0.024c-0.021,0.209-0.077,0.388-0.139,0.559c-0.884-0.395-0.139-0.408,0.139-0.559
					c0.01-0.072,0.033-0.143,0.037-0.221c-0.004-0.009-0.008-0.015-0.012-0.021l-3.057,0.551
					C407.848,42.9,408.658,42.924,410.094,42.881z"/>
				<path fill="#4270A7" d="M425.435,50.583c-0.095-0.109-0.091-0.197-0.098-0.286C425.139,50.445,425.063,50.549,425.435,50.583z"
					/>
				<path fill="#4270A7" d="M424.177,49.817c0.223-0.171,0.407-0.663,1.13-0.514c0.627,0.385-0.003,0.587,0.03,0.993
					c0.435-0.327,1.523-0.833,0.158-1.473l-0.216,0.159c-1.23-0.449-2.813-2.131-2.598-2.302
					C423.041,47.856,423.357,48.693,424.177,49.817z"/>
				<path fill="#4270A7" d="M417.048,46.971l-2.546,0.571l1.297,1.281l-0.066-0.739C417.181,48.424,416.867,47.519,417.048,46.971z"
					/>
				<polygon fill="#4270A7" points="403.148,41.205 403.485,39.522 402.016,41.814 				"/>
				<polygon fill="#4270A7" points="399.84,41.116 399.963,39.584 399.089,40.433 				"/>
				<path fill="#4270A7" d="M213.168,59.435l-0.748,0.374C212.774,59.698,213.001,59.572,213.168,59.435z"/>
				<path fill="#4270A7" d="M218.583,59.703l0.133-0.702C218.465,59.383,218.362,59.666,218.583,59.703z"/>
				<path fill="#4270A7" d="M318.597,38.152c-1.09-1.887-2.307-4.787-2.175-2.504l0.334,2.219
					C317.518,37.448,318.101,37.679,318.597,38.152z"/>
				<path fill="#4270A7" d="M262.956,51.417c0.104,0.18,0.212,0.368,0.319,0.554c0.264-0.626,0.512-1.213,0.735-1.743
					C263.694,50.603,263.334,51.001,262.956,51.417z"/>
				<path fill="#4270A7" d="M262.188,58.917l-1.437-1.205C261.074,58.126,261.536,58.526,262.188,58.917z"/>
				<path fill="#4270A7" d="M183.593,59.9l-0.873,1.345C184.085,61.304,183.485,60.575,183.593,59.9z"/>
				<path fill="#4270A7" d="M365.96,39.548c-0.94-0.862-1.688-1.249-2.346-1.386C364.747,39.437,365.66,41.274,365.96,39.548z"/>
				<path fill="#4270A7" d="M215.299,43.021c-0.458,0.295-0.653,0.615-0.64,0.961C215.13,43.704,215.396,43.398,215.299,43.021z"/>
				<path fill="#4270A7" d="M360.898,38.037c0.166,0.222,0.328,0.337,0.497,0.524c0.688-0.327,1.379-0.581,2.219-0.399
					C362.777,37.213,361.819,36.6,360.898,38.037z"/>
				<path fill="#4270A7" d="M76.333,54.281c-0.078-0.029-0.172-0.046-0.243-0.08C76.067,54.277,76.175,54.287,76.333,54.281z"/>
				<path fill="#4270A7" d="M45.085,49.674c0.308-0.031,0.81-0.051,1.283-0.074C46.138,49.587,45.751,49.605,45.085,49.674z"/>
				<path fill="#4270A7" d="M386.53,39.226C387.231,39.161,386.641,39.028,386.53,39.226L386.53,39.226z"/>
				<path fill="#4270A7" d="M389.941,46.743c-0.148,0.201-0.262,0.461-0.279,0.884C389.72,47.187,389.817,46.908,389.941,46.743z"/>
				<path fill="#4270A7" d="M353.91,51.324c-0.021-0.002-0.037-0.004-0.061-0.007C354.059,51.745,354.022,51.664,353.91,51.324z"/>
				<path fill="#4270A7" d="M387.586,40.158c-0.264-0.249-0.567-0.463-0.897-0.625C386.834,39.69,387.106,39.893,387.586,40.158z"/>
				<path fill="#4270A7" d="M387.443,39.266c0.242,0.104,0.433,0.165,0.613,0.229C388.146,39.194,388.067,38.993,387.443,39.266z"/>
				<path fill="#4270A7" d="M385.553,39.253c0.401,0.001,0.775,0.115,1.136,0.28c-0.138-0.137-0.195-0.248-0.158-0.308
					C386.324,39.238,386.034,39.256,385.553,39.253z"/>
				<path fill="#4270A7" d="M133.804,54.088c-0.046-0.033-0.1-0.055-0.15-0.1C132.945,54.395,133.256,54.335,133.804,54.088z"/>
				<path fill="#4270A7" d="M300.337,60.879c0.032-0.02,0.05-0.074,0.08-0.1c-0.033-0.024-0.074-0.056-0.104-0.078L300.337,60.879z"
					/>
				<path fill="#4270A7" d="M297.816,62.357c1.073-2.581,1.684-2.248,2.496-1.656l-0.833-6.145L297.816,62.357z"/>
				<path fill="#4270A7" d="M200.202,59.448l1.77,1.385c-2.136,2.096-3.681,1.259-2.02,3.192c0.25-4.588,6.878-0.141,7.124-4.827
					l1.167,1.032c-0.334-0.058-0.388,0.22-0.718,0.16c2.269,2.356,1.686-3.369,4.608-2.624c1.019,0.393,1.729,1.117,1.035,1.668
					l2.27-1.131c0.661,0.112,0.499,0.954-0.158,0.841l3.462-0.288l-0.026,0.145c0.494-0.758,1.613-1.929,2.16-2.431
					c0.88,0.729-0.441,0.518-0.216,1.14l1.917-1.166c0.781,1.312-0.808,2.53-2.132,2.307c1.791,5.019,1.591-1.217,5.455,1.815
					l-1.81,0.579c1.167,2.891,2.58,1.912,4.626,3.798c-0.486-0.979-4.097-4.668-2.017-5.859c0.586,0.396,1.359,0.604,2.481-0.393
					c0.011,1.813,1.106,1.401,2.478,1.337l-0.094,2.417c1.482-0.645,1.365-1.887,2.238-2.959c1.652,0.283,1.995,2.194,2.384,3.813
					c2.646,0.484-1.828-3.11,1.305-3.477c2.201,1.006,3.746,0.053,6.379-1.393c1.541,0.905-0.27,1.532,0.283,2.267l1.365-1.976
					c0.334,0.057,0.227,0.674,0.172,0.985c1.15-0.754,0.095-2.524,1.903-3.182c0.488-2.818,3.713,4.197,5.953,1.037
					c0.552,0.749-0.267,1.583-0.098,2.589c3.071-2.047,2.633-1.475,5.154-4.323l2.148,1.785c-1.578-2.029,0.438-4.334,2.205-6.295
					c-0.56-0.973-1.038-1.817-1.359-2.219l2.819-1.465c0.341,0.438,0.057,1.37-0.405,2.494c0.192-0.222,0.375-0.443,0.517-0.647
					c1.008,0.991,0.485,2.56-0.236,4.056c-0.344-0.534-0.685-1.103-1.016-1.665c-0.697,1.629-1.348,3.413-1.203,4.979
					c0.184-0.304,0.536-0.563,0.924-0.704c-0.182,0.438-0.298,0.83-0.214,1.1c0.096,0.284,0.39-0.301,0.851-0.977l0.642,3.015
					l0.155-1.188l3.688,2.02c2.64-2.965,4.935-7.52,9.123-8.835c-1.039,2.318-0.223,3.789-0.279,6.546
					c-1.144-2.932-3.244,1.14-5.415,0.469c1.133,0.335,0.884,1.616,0.596,2.052l3.871-2.478c-0.087,2.238,0.822,1.709,1.834,2.684
					c-0.765-4.489,2.886-2.885,4.461-4.237c0.099,1.535-0.279,3.083-2.201,2.644c2.12,3.51,2.74-5.256,4.821-2.29
					c-0.47,0.025-0.723-0.218-0.907,0.561c1.096-1.344,3.775-0.188,3.146,1.162l-0.469,0.016c3.115,0.658,9.484,0.371,9.95-3.757
					c0.03,0.534-0.409,4.948-0.598,5.768c0,0,1.391-3.438,2.78-6.876c1.39-3.511,2.779-7.022,2.779-7.022
					c-0.489,3.581,1.391,12.216-1.193,14.16c0.742,0.533,1.659,1.182,3.224-0.047c-0.506-0.536-1.262-5.26-0.57-5.58
					c1.898,4.071,1.318,2.173,3.658,5.703c-0.759-0.806,0.084-6.517,1.283-6.327c-0.188,0.858,0.1,5.692-0.339,6.278l2.983-5.616
					c-0.744,1.019-0.131,4.823,0.536,6.459c-0.31-1.125,2.58,0.171,3.375-0.378l-1.265-1.36c3.369,0.948,3.328-8.059,6.67-7.755
					c-0.404,1.203-0.999,7.375,0.7,8.133c0.779-2.959,3.449-14.344,6.406-16.679l0.567,1.712l2.269-1.958
					c-1.413,4.521-5.377,14.03-7.542,17.671c1.261,1.367,0.351,2.02,2.239,1.888c0.666,1.612-1.029,2.422-1.585,2.504l4.396,1.091
					c-0.195-3.504,3.361-3.502,3.193-6.422l-4.773,3.607c-0.193-3.486,2.761-9.918,5.875-9.305c0.792,1.394-0.593,6.239-0.528,7.408
					c0.404-1.209,2.956-2.308,3.242-1.456l-1.321,1.877c1.734,1.313,2.83-4.653,4.913-1.329c0.72,0.218,2.147,4.466,2.272,2.399
					c-1.173-3.957-1.402-16.286-0.621-19.268c0.253,0.271,3.776,3.829,4.598,5.777c1.185,3.092-1.778,7.399-0.77,10.06
					c0.043-0.948,0.697-2.124,0.97-2.501c0.756,0.798-0.313,2.937,1.329,2.479c0.273-3.506,3.337,0.244,0.775-2.97
					c1.605-1.017,1.706,0.699,3.591,0.514c-0.6-2.24,1.692-7.64,3.301-8.596c-0.095,0.874,0.267,2.013,0.441,2.53
					c3.291,0.312,5.058,1.837,8.125,1.838c0.283,0.81,1.764,1.76,1.133,3.2c0.441-0.599,0.848-1.729,1.794-1.821
					c1.831,2.814-2.11,0.487-0.714,3.894c0.119-1.93,2.447-2.71,3.795-3.911c-0.414-2.92-3.114-0.539-4.464,0.698
					c-0.006-4.12,2.344-8.41,5.551-10.17c2.549-0.918,1.105,2.608,1.548,2.052c4.787,0.746,4.078-6.732,8.054-3.76
					c1.578,2.487,0.071,4.838,0.421,6.605c-2.076,0.921-3.188-1.58-4.595-1.509l1.732,1.192c-0.66,0.813-2.046,1.445-2.802,0.719
					c1.322,2.231,8.089,0.453,11.782,2.389c0.656-0.795,1.789-1.599,1.253-2.533l-1.169,0.321c-1.073-1.908,2.2-2.571,0.721-3.474
					c1.568-1.293,3.325-3.229,5.532-2.098l0.415,2.567c-0.048-0.742-1.442-1.571-2.063-0.806c0.92-1.085,3.385,3.526,4.393,0.251
					l-1.547-1.805c1.574-1.216,3.52-3.705,5.476-2.773c-0.89-2.474-0.451,0.25-1.841-2.701c1.205,3.643-5.004-0.566-3.068,3.379
					c-1.426-3.5-2.469-1.599-4.333-4.714c0.058,0.864,0.661,1.695-0.981,1.14c-0.074,0.247-0.249,0.555-0.359,0.735
					c-0.051-0.027-0.068-0.043-0.111-0.073c0.032,0.04,0.058,0.07,0.09,0.109c-0.07,0.125-0.077,0.151,0.034,0.038
					c0.392,0.408,0.708,0.884,0.837,1.373c-0.815,1.923-3.427,1.738-4.31,2.756c-0.975-0.465,0.407-0.999-0.124-1.97l-1.319,1.52
					c-0.131-1.979-2.589-3.472-0.293-4.486l-2.066-0.234c-1.216-1.209-2.889-1.799-3.921-1.004
					c-0.975-0.523-2.461,2.136-1.612,0.562l-3.24,1.116l-0.03-0.53c-3.196-0.488-6.58,3.273-10.235-0.844
					c-1.076,0.506-2.188,1.15-3.989,0.442l-0.351-1.953c-1.382,0.617-4.149-2.141-4.743-0.126c-1.491-5.364-6.707-1.433-9.137-2.418
					l-0.092,2.617c-1.673-0.19-3.277,0.532-5.354,1.562l0.128,2.331c-1.791,1.901-4.603-1.692-7.435-1.453
					c0.192-0.896,0.911-0.66,1.419-0.119c-3.383-5.277-7.138,3.855-10.205,0.064c-0.765,0.854-1.318,0.577-1.854,0.003
					c0.071-0.006,0.135-0.05,0.189-0.125c-0.078-0.026-0.194-0.029-0.314-0.022c-0.337-0.392-0.685-0.85-1.062-1.212
					c0.32,0.556,0.627,1.014,0.894,1.223c-0.59,0.059-1.484,0.361-2.36,0.959l-0.374-2.468c-0.07,0.035-0.128,0.031-0.202,0.076
					c-0.86-0.89-0.691,1.187-0.232,3.038c-0.441,0.416-0.847,0.911-1.16,1.512c-0.698-3.963-2.3,1.38-3.253-2.823
					c-0.591,2.071-4.407,1.674-4.874,5.95c-0.03-0.556-0.288-0.814,0.185-0.858c-0.978-0.47-1.953-0.926-2.83,0.284l-0.415-3.034
					l-2.134,4.126c-1.296-1.817-1.833-2.849-0.546-5.212c-3.108,3.656-2.522,1.433-5.166,4.979l0.129-1.915
					c-0.944,0.106-2.455,2.679-3.024,1.127c-1.057-1.77-3.672-1.799-6.7-1.788c-3.028,0.016-6.471,0.059-9.184-1.392
					c1.053,5.14-2.521-2.219-2.737,1.782c-0.315-1.202-1.071-1.851-0.193-2.941c-2.769,1.296-4.159-1.696-6.071,1.65
					c-0.317-1.172,0.593-1.755,0.311-2.445c-0.222,0.266-0.88,1.063-1.168,0.374c-0.281-0.687,0.405-1.005,0.844-1.542
					c-2.828,0.348-3.114,3.947-3.32,7.317c-1.433-1.564-2.148-1.311-3.184,0.888c-0.499-1.082-1.331-2.194,0.427-2.629
					c-0.989-0.145-6.04-1.41-6.141,1.196c-0.31-0.657-1.382-0.168-1.643,0.136c-2.219-0.118-2.414-0.345-4.592-0.063l0.604,0.409
					c-0.86,3.103-1.811,0.709-3.567,1.104l0.05-0.314c-4.027-2.139-1.739,1.063-5.711-1.364l0.216,1.868
					c-0.371,4.015-3.52-2.327-5.826-0.754l0.833,1.041c-1.259,1.352-3.52-5.314-4.784-5.747c-0.276-0.332,0.435-0.558,0.82-0.822
					c-3.311-2.196-0.429,2.395-2.896,3.003c-0.455-1.261,0.586-3.26-1.074-3.441c-0.827-0.977-4.816,4.228-7.082,1.885
					c0.499,0.941,0.995,1.891-0.151,2.632c-1.756,0.356-4.748-3.45-6.335-0.453c-0.223-0.249-0.308-0.491-0.317-0.723
					c-1.343,0.794-4.363,1.361-5.172,2.935c-0.62-2.893-2.707-2.123-4.635-1.337c-1.928,0.79-3.697,1.604-3.682-0.983l-4.13,0.375
					l0.108-0.522c-2.64-0.263-3.573,0.98-4.501,2.196c-0.61-0.328-0.165-0.803-0.114-1.066c-3.857-0.914-4.241-0.649-7.475,1.821
					l-0.336-1.559c-0.877,0.902-5.577-2.26-9.36-0.375c0.037-0.17,0.115-0.463,0.416-0.683c-2.128,0.938-4.676-0.029-6.886-0.496
					c-2.21-0.477-4.084-0.488-4.864,2.094l-2.809,1.317c3.634,0.335-0.541,2.203,0.954,3.026c-1.429,0.289-3.695-1.496-1.938-1.769
					l0.274,0.248c0.646-2.63-4.516-0.853-4.418-2.598c-7.151,0.285-14.121-0.849-20.819-0.672l0.772,1.718l-2.337-0.043
					c-0.613-0.386-0.823-1.314,0.844-1.301c-0.876-0.941-2.795,0.906-2.843,1.267c-3.264-0.587,1.275-2.01,0.274-2.025l-1.359,0.18
					l0.307,0.185c-1.102,0.728-1.2,1.449-3.203,1.421c-1.268-0.293-0.65-0.989-1.149-1.036c0.003-0.115-0.166-0.163-0.766-0.02
					l-2.943-0.029l1.177,1.219c-1.305,0.655-2.768,0.002-1.409,1.387c-1.994-2.13-10.981-0.498-12.205-1.105
					c-1.828,0.872-3.631,0.882-5.866,0.843c0.556,0.207,0.888,1.413-1.039,1.284c0.705-2.458-3.529-0.998-5.087-2.628
					c1.392,1.063-5.479,0.458-3.294,1.915c-1.608-0.145-0.098-0.838-1.318-1.322c-3.827,0.953-8.435-0.234-13.166,0.239
					c-0.074,0.247,0.718,0.606-0.296,1.002c0,0-0.625-0.287-1.25-0.575c-0.625-0.276-1.249-0.553-1.249-0.553
					c-0.934,0.164-0.86,1.389-2.567,0.641c0.241,0.184,0.601,0.468-0.026,0.559c-4.634-0.416-9.369-0.01-14.122,0.215
					c-4.752,0.254-9.523,0.305-14.229-0.076c1.274,0.194,0.425,0.261-0.549,0.307c0.633,0.035-0.014,0.316,0.11,0.484
					c0,0-0.985-0.088-1.97-0.176c-0.985-0.074-1.971-0.147-1.971-0.147c-0.718,0.443-4.225,0.198-4.636,0.563l1.248-0.1
					c-1.66,0.437,2.322,0.922,2.08,1.548c0.929-0.237,2.154-0.024,3.528,0.204c1.374,0.22,2.896,0.466,4.42,0.037
					c0.673,0.174-0.574,0.224-0.214,0.407c0.772-0.289,1.706-0.344,3.436-0.135l-0.196,0.079c4.859,0.068,6.942,0.501,12.401,1.041
					L64.2,52.873c1.173,0.108,1.42,0.283,1.969,0.438c1.346-0.763-3.295-0.162-2.068-0.987c1.556,1.121,8.271,0.222,9.323,1.629
					c1.805,0.085-0.529-0.719,1.275-0.645l0.478,0.403l0.456-0.482c1.183,0.119,1.78,0.641,1.824,0.982
					c-0.287-0.053-0.816,0.057-1.124,0.069c1.534,0.55,4.326,0.045,4.853,0.221l-1.734-0.333c4.924-0.209,10.938,0.663,15.695-0.155
					l-0.361-0.386c3.633-0.603,2.91,0.503,6.899,0.292l-0.145,0.091c0.798-0.374,1.864-0.556,2.956-0.482
					c-1.007,0.45,1.895,0.999,0.574,1.494c3.939-0.693,1.949-0.57,4.551-2.106l0.6,0.731c0.887-0.634,0.961-0.979,2.953-1.145
					c-1.634,0.604,1.271,1.159-0.559,1.952c2.09,0.877,3.642,0.533,4.911,0.24c1.269-0.285,2.255-0.507,3.214,0.788
					c1.92-2.138-3.617-1.302-2.542-1.737c-0.9-0.711,1.584-1.58,2.896-1.354c1.335,0.055,2.271,2.862,5.63,2.947
					c-0.334-0.022-0.357,0.149-0.69,0.129c1.257,0.632,2.463-0.719,4.006,0.298c0.864-1.396,2.002,0.151,2.251-1.678l-3.082,0.347
					c1.747-0.411,3.385-2.556,6.263-1.467c-0.225,0.377-1.081,0.859-1.669,1.12c0.841,0.571,1.621-0.331,2.493,0.259
					c-0.249,1.881-3.746,0.315-5.617,1.65c0.903,0.813,3.541-1.21,2.6,0.761c1.352-2.523,3.31,0.467,5.585-1.462l-0.15,1.15
					c0.36-0.167,1.106-0.689,1.769-0.64l-1.2,1.463c1.842-1.221,3.551,1.294,5.317,0.665c-3.699-0.123-0.831-1.473-2.395-2.394
					c4.563-1.477,2.624,3.216,7.731,2.878c-0.691,0.139-2.596-0.853-1.515-1.377c0.972,0.288,2.256,0.815,2.853,1.501
					c3.384-0.113-0.52-1.313,0.921-2.025c1.153,1.577,1.662-0.564,3.146-1.031l0.01,1.304c3.856,0.979,1.023-2.71,4.495-1.597
					l-1.467,1.804l1.81-0.417l-0.374,1.51c1.97-1.053,2.583-0.75,4.512-0.236c-0.449-0.981,0.252-2.479,1.96-2.486
					c1.165,0.856-0.652,1.301,1.769,1.175c-0.546,0.863-1.145,1.927-2.199,0.611c-0.108,0.448-0.539,0.849-0.65,1.287
					c1.254,0.999,3.153,0.354,4.029,0.375c-0.337-0.067-0.741-0.159-0.948-0.368l3.51-1.839c0.553,0.553,0.114,0.974-0.32,1.38
					c0.711-0.13,1.203-0.772,2.248-0.866c-0.271,1.164-0.206,2.381-1.686,2.862l3.344-1.163c0.223,0.521,1.716,1.49,1.282,1.91
					c1.854,0.807,4.548-2.136,7.006-1.101c0.127-0.234,0.384-0.453,0.906-0.61c2.31,0.356,4.356,2.008,7.094,0.372l1.554,2.367
					c2.145-0.436-2.103-2.983,1.467-3.731c2.528-0.664,0.943,2.021,1.831,2.706c1.257-1.121,3.443-3.503,5.765-1.491
					C201.522,59.668,200.92,59.295,200.202,59.448z M226.648,59.149c-0.513,0.364-1.534,1.491-1.909,0.427
					C225.323,57.545,225.774,58.532,226.648,59.149z M266.85,55.369c-0.381,0.673-0.971,0.322-1.635-0.461
					C265.697,54.749,266.243,54.833,266.85,55.369z M378.84,40.44c-0.021,0.034-0.037,0.06-0.055,0.103
					C377.643,39.623,378.048,39.984,378.84,40.44z M381.214,41.518c0.238-0.287,0.222-0.586,0.121-0.894
					c-0.166,0.534-0.698,0.54-1.306,0.354C380.198,41.558,380.505,41.958,381.214,41.518z M126.31,46.703l0.462,0.267
					C125.729,47.31,126.021,47.022,126.31,46.703z"/>
				<path fill="#4270A7" d="M262.291,58.051c-0.145-0.345-0.185-0.721-0.219-1.101C261.871,57.284,261.866,57.675,262.291,58.051z"
					/>
				<path fill="#4270A7" d="M183.754,59.65c-0.027-0.013-0.054-0.01-0.08-0.02c-0.044,0.088-0.068,0.18-0.082,0.27L183.754,59.65z"
					/>
				<path fill="#4270A7" d="M344.445,61.137c-0.489-0.349-0.762-0.801-0.942-1.27C343.476,60.478,343.698,60.988,344.445,61.137z"/>
				<path fill="#4270A7" d="M393.792,38.936l-1.521,0.376c0.735-0.032,0.998,0.427,1.369,0.773
					C393.606,39.62,393.316,38.922,393.792,38.936z"/>
				<path fill="#4270A7" d="M406.989,51.156c0.222-0.215,0.471-0.023,0.69-0.241l-0.062-0.81
					C406.672,50.146,406.011,50.81,406.989,51.156z"/>
				<path fill="#4270A7" d="M395.199,45.569c0.121,1.651,1.074,1.119,2.14,0.861c-0.063,0.003-0.125,0.015-0.188-0.008
					C397.464,44.174,396.329,44.859,395.199,45.569z"/>
				<path fill="#4270A7" d="M397.586,46.386c0.328-0.063,0.663-0.091,0.984,0C398.695,45.494,398.171,46.18,397.586,46.386z"/>
				<path fill="#4270A7" d="M384.225,40.513c0.505,0.49,0.316-2.248,0.603-1.505C385.391,36.776,381.459,41.515,384.225,40.513z"/>
				<polygon fill="#4270A7" points="396.062,50.99 395.68,48.967 395.083,50.596 				"/>
				<path fill="#4270A7" d="M387.652,49.413l1.702,0.606c-0.026-0.356,0.19-0.563,0.456-0.719
					C388.762,49.22,387.612,48.775,387.652,49.413z"/>
				<path fill="#4270A7" d="M389.811,49.301c0.546,0.048,1.065,0.008,1.369-0.331C390.885,48.988,390.248,49.048,389.811,49.301z"/>
				<polygon fill="#4270A7" points="393.735,51.606 393.232,51.179 392.03,51.028 				"/>
				<path fill="#4270A7" d="M369.358,48.782l-1.857,0.67c-0.189,0.822,0.317,1.326,1.009,1.001
					C368.954,49.883,369.644,49.573,369.358,48.782z"/>
				<path fill="#4270A7" d="M374.976,55.187c-0.503-0.471-0.536-0.989-0.819-1.752L374.1,56.32L374.976,55.187z"/>
				<path fill="#4270A7" d="M369.559,55.985c-0.185,0.818-2.695,2.434-0.341,2.174C369.405,57.337,371.266,56.613,369.559,55.985z"
					/>
				<polygon fill="#4270A7" points="341.573,52.369 342.046,52.328 341.978,47.061 				"/>
				<path fill="#4270A7" d="M316.907,64.891c2.201,1.317,0.522-3.223,2.512-1.611c0.517-1.234-1.626-1.312-1.096-2.375
					C316.995,62.189,316.297,61.431,316.907,64.891z"/>
				<path fill="#4270A7" d="M318.323,60.904c0.213-0.203,0.438-0.451,0.678-0.788C318.616,60.438,318.436,60.688,318.323,60.904z"/>
				<polygon fill="#4270A7" points="39.9,49.564 38.485,49.523 39.398,49.667 				"/>
				<path fill="#4270A7" d="M37.183,50.109l-0.333-0.324L36,50.122C36.32,50.096,36.94,50.041,37.183,50.109z"/>
				<path fill="#4270A7" d="M230.579,64.185l0.108-0.585c-0.219-0.646-0.551-0.706-1.214-0.831L230.579,64.185z"/>
				<polygon fill="#4270A7" points="211.385,61.62 211.715,61.68 211.098,59.586 				"/>
				<path fill="#4270A7" d="M195.275,63.45c0.658,0.12,1.43-0.277,2.091-0.163C195.933,63.568,195.097,61.016,195.275,63.45z"/>
			</g>
		</g>
	</g>
</g>
</svg>
