<?xml version="1.0" encoding="utf-8"?>
<!-- Generator: Adobe Illustrator 16.0.0, SVG Export Plug-In . SVG Version: 6.00 Build 0)  -->
<!DOCTYPE svg PUBLIC "-//W3C//DTD SVG 1.1//EN" "http://www.w3.org/Graphics/SVG/1.1/DTD/svg11.dtd">
<svg version="1.1" id="Layer_1" xmlns="http://www.w3.org/2000/svg" xmlns:xlink="http://www.w3.org/1999/xlink" x="0px" y="0px"
	 width="500px" height="300px" viewBox="0 0 500 300" enable-background="new 0 0 500 300" xml:space="preserve">
<g>
	<path fill="#162B44" d="M313,93c15,17.333,41.333,19,58.667,33C388,138.667,390,164.667,386,183.667c-4,21-10.333,41.666-25,58
		c0-9,10.333-20,13.333-28.667c2.667-8.333,5.334-17.667,6-26.667c2-23-8-43-26.333-57c-4-3-8.667-6.333-13.333-8.666
		c8.333,8.666,21.666,22,21,35.666c-8-5-14.334-16.666-21-23.333c-8-8.333-15.667-14.667-25.334-21c-13.333-8.667-30-15-46-16.667
		c2,3.334,10,4,13.667,5.334c5,2,10,4,14.667,6.333c10.666,5.333,21.333,12.667,30,21c10,8.667,16,17,22,28.667
		c4.666,8.333,5.333,17.666,6.333,27c2,17.666,2,42.333-7,58c-6,10.666-15.333,14.666-27.333,14.333c-7.667,0-24.334-6.333-16-17
		c0.666-1,1.333-1,2.333-1.333c-1.333,3.666,1.333,9,4.667,10.666c5,2,12-3,15.666-5.666c9-6.334,14.667-16.334,15.334-27.667
		c1-22.333-21-38-38.334-47.333c-47.666-25.667-108-33.334-156-4.334c-10,5.667-21,13-26.666,23.334c-4,7.666-5,17.666-9,24.666
		c-3-7.333,0-18.666,1-26.666c1.666-10,4.333-21,8.333-30c11.667-26,30-47.334,55.667-59.667
		c11.581-5.564,24.022-8.681,36.803-9.797c4.943-0.433,10.311-1.122,15.273-0.632c6.284,0.619,12.425,3.237,18.538,4.721
		c-0.9-6.069-11.287-11.03-16.589-12.817c3.177,1.764,7.499,2.271,10.974,3.841c4.681,2.113,9.06,3.822,14.008,5.433
		c3.611,1.176,13.631,4.742,14.593-1.49c0.577-3.74-3.74-9.314-6.183-11.608c-5.44-5.109-11.331-8.836-17.827-12.401
		c-6.451-3.54-13.622-5.682-20.981-6.267c-5.386-0.428-11.041,1.981-16.175,1.276c8.19-2.292,17.425-3.09,25.906-4.666
		c7.605-1.413,15.128-3.182,22.676-4.603c7.081-1.333,16.376,0.089,23.14,2.516c5.195,1.864,8.984,7.777,11.864,12.379
		C301.187,71.272,304.938,83.63,313,93z"/>
</g>
</svg>
